<?xml version="1.0" encoding="UTF-8"?>
<svg id="Layer_2" data-name="Layer 2" xmlns="http://www.w3.org/2000/svg" viewBox="0 0 381.94 342.33">
  <defs>
    <style>
      .cls-1 {
        fill: #cdb28f;
      }

      .cls-2 {
        fill: #e2d8bf;
      }

      .cls-3 {
        fill: #efe9da;
      }

      .cls-4 {
        fill: #ba9d7b;
      }

      .cls-5 {
        fill: #cdb594;
      }

      .cls-6 {
        fill: #e3d5bc;
      }

      .cls-7 {
        fill: #ba9469;
      }

      .cls-8 {
        fill: #d4c2a3;
      }

      .cls-9 {
        fill: #c9b08d;
      }

      .cls-10 {
        fill: #c4a57e;
      }

      .cls-11 {
        fill: #ede7d7;
      }

      .cls-12 {
        fill: #b48c5f;
      }

      .cls-13 {
        fill: #a67e55;
      }

      .cls-14 {
        fill: #e0ceb5;
      }

      .cls-15 {
        fill: #c8a680;
      }

      .cls-16 {
        fill: #be9c74;
      }

      .cls-17 {
        fill: #ba9970;
      }

      .cls-18 {
        fill: #c3a27c;
      }

      .cls-19 {
        fill: #e0c8a8;
      }

      .cls-20 {
        fill: #ddcaaf;
      }

      .cls-21 {
        fill: #b99166;
      }

      .cls-22 {
        fill: #cfb290;
      }

      .cls-23 {
        fill: #eee8d7;
      }

      .cls-24 {
        fill: #ba966c;
      }

      .cls-25 {
        fill: #e7d6c0;
      }

      .cls-26 {
        fill: #dcc7a8;
      }

      .cls-27 {
        fill: #ded0bb;
      }

      .cls-28 {
        fill: #deccaf;
      }

      .cls-29 {
        fill: #e1cfb5;
      }

      .cls-30 {
        fill: #d5bb97;
      }

      .cls-31 {
        fill: #d2bc98;
      }

      .cls-32 {
        fill: #d8bea0;
      }

      .cls-33 {
        fill: #ece3d0;
      }

      .cls-34 {
        fill: #d8c1a1;
      }

      .cls-35 {
        fill: #cfb48b;
      }

      .cls-36 {
        fill: #e4d5c0;
      }

      .cls-37 {
        fill: #cdae86;
      }

      .cls-38 {
        fill: #dcd7ca;
      }

      .cls-39 {
        fill: #d2b58f;
      }

      .cls-40 {
        fill: #ae885b;
      }

      .cls-41 {
        fill: #c4aa84;
      }

      .cls-42 {
        fill: #c4a178;
      }

      .cls-43 {
        fill: #d7bc99;
      }

      .cls-44 {
        fill: #decfb8;
      }

      .cls-45 {
        fill: #8c653e;
      }

      .cls-46 {
        fill: #f0ecde;
      }

      .cls-47 {
        fill: #c0a47a;
      }

      .cls-48 {
        fill: #cfb994;
      }

      .cls-49 {
        fill: #b7946a;
      }

      .cls-50 {
        fill: #ccb291;
      }

      .cls-51 {
        fill: #dfccaf;
      }

      .cls-52 {
        fill: #ece0cd;
      }

      .cls-53 {
        fill: #efe7d6;
      }

      .cls-54 {
        fill: #c8a77b;
      }

      .cls-55 {
        fill: #c6aa86;
      }

      .cls-56 {
        fill: #d4bb9b;
      }

      .cls-57 {
        fill: #c3a27a;
      }

      .cls-58 {
        fill: #e9ddc5;
      }

      .cls-59 {
        fill: #e7d6ba;
      }

      .cls-60 {
        fill: #dec6a5;
      }

      .cls-61 {
        fill: #e9e4d2;
      }

      .cls-62 {
        fill: #d5ba99;
      }

      .cls-63 {
        fill: #d9c0a1;
      }

      .cls-64 {
        fill: #cfb594;
      }

      .cls-65 {
        fill: #e5d2ba;
      }

      .cls-66 {
        fill: #d2c0a8;
      }

      .cls-67 {
        fill: #c5baab;
      }

      .cls-68 {
        fill: #a8855f;
      }

      .cls-69 {
        fill: #c7ab89;
      }
    </style>
  </defs>
  <g id="Layer_1-2" data-name="Layer 1">
    <g>
      <path class="cls-46" d="M75,79.13c-3.68,5.87,5.51.67,7.99,3l-2.94-3.56,2.9-5.95,3.04.52.95-4.64,4.89-1.53,3.38-8.63,6.78-1.22-.64-2.09-2.36-1.89,7.63-4.93c3.73,2.93,6.12.83,10.37.91l-1.99-3.99,3.97-.5-3.98-1.51,1.52-3.99,3.99,1.99,1.51-2.97,4.52,2.03,10.45-2.03-1.54,5.02-11.45,7.49c.68,4.49,4.43-.22,4.81-.4,1.42-.69,2.79-1.42,4.18-2.11-1.69,4.18-9.6,5.61-10.82,9.71-1.4,4.71,2.89,13.2,2.82,18.29-.13-.59-1.05-4.28-1.99-3.99-3.09,4.32,3.78,11.55-1.98,13.02l-.04,1.47,1.97.53v1.93c-.77-.03-1.56-.09-1.9.79-2.25,5.88-4.02,12.52-9.57,16.33-1.01.69-2.24-.04-2.34.09-1,1.3.31,2.89-3.14,4.84-5.37,3.02-14.5,4.21-20.31,2.14l-3.33,2.73-10.05-2.7-4.8,1.83c-3.79-3.47,1.55-5.64,4.5-4.45l.99-9.02-6.05-1,.18-3.41c1.32-.97,7.24-.08,8.88-.57,2.1-.63,2.89-3.2,5.97-1.56l-1.99-4.5-5-.51,2.98-3.49-3.06-3.41-3.92,1.92c1.59-2.7,2.45-3.57,4-6Z"/>
      <path class="cls-3" d="M357,224.13c.27,2.72,1.48,1.61,1.92,2.77,1.89,4.95.24,8.08,7.63,8.28,1.69.05,1.54-.33,2.45-1.05.46-.37.87-1.81,2-2-10.5,27.95-29.75,55.06-53.08,73.42-3.06,2.41-7.29,5.09-10.92,6.58,1.45-3.55,3.33-2.71,4-6-3.59.25-7.77.72-11.32.63-1.92-.05-4.79-1.44-6.23-1.25-.36.05-4.62,1.99-6.45,2.62.65-.58,4.02-3.57,4.28-3.68,11.11-4.84,16.88-10.61,26.26-18.28,1.69-1.39,1.69-4.39,5.31-4.2l.35-3.62c2.72-1.3,4.87-3.48,6.78-5.74,14.13-16.76,18.66-34.02,27.02-53.48.11,1.65-.17,3.36,0,5Z"/>
      <path class="cls-33" d="M55,117.13c.06-.15,1.1-.35,1.43-1.07,1.56-3.37,2.25-8.71,5.56-10.93l.02,7.99c-6.36-1.3-3.01,10.18-.74,12.73.76.85,3.02,1.09,4.34,2.26s.59,2.5,1.01,3.02c1.89,2.38,3.66.61,3.38,5.99-.32,6.28-3.48,13.71-3.99,20.51-.84,11.1.34,22.45.99,33.49-.36-2.13-1.74-4.66-1.99-7.52-.47-5.32.32-11.11-.02-16.48-3.58-.81-1.56,4.94-2.04,7.45-.6,3.13-3.4,6.33-1.94,10.91l-2.01.65,2.9,2.1-.9,3.89,2.99.99-3.03.57c-1.69-2.15-2.67-4.81-5.97-4.56-1.38.1-6.39,2.25-6.84,3.65-.36,5.05.15,10.37.84,15.35.05.33-.05.68,0,1-1.51-3.32-2.36-8.18-2.71-11.8-2.45-25.4-1.38-56.52,8.71-80.2Z"/>
      <path class="cls-53" d="M287,308.13c1.83-.63,6.09-2.57,6.45-2.62,1.44-.2,4.3,1.19,6.23,1.25,3.55.1,7.73-.38,11.32-.63-.66,3.29-2.55,2.45-4,6-.79,1.95-7.14,5.74-10.08,7.42-14.08,8.01-29.16,12.49-45.18,16.83-5.45,1.48-11.02,3.97-16.74,3.76,2.13-.43,5.09-2.73,8-2.01-.86-.54-4.4-3.96-4.7-4.01-3.84-.64-10,1.4-13.85,2.1l-2.43-2.07-2.01,1.5,1.01-6.51,9.39,1.72,6.61-4.7c-5.29-.28-10.73.36-16,0,3.9-2.01,9.01-.72,13.38-1.12,6.66-.61,17.75-2.54,23.82-4.98,4.04-1.63,4.57-1.24,8.83-2.36,5.87-1.54,13.15-7.2,19.96-9.53Z"/>
      <path class="cls-23" d="M129,27.13l-1.49,3.01c4.07,1.1,6.38-2.94,8.27-3.93,5.57-2.93,17.76-9.3,23.61-8.13l4.26,5.91,6.85-3.52,4.49,3.17c-1.59,2.55-3.12.09-5.31.45-.53.09-2.6,3.64-2.92,3.76-2.25.83-4.23.1-6.74,2.3l3.98,1.98c-9.17,3.41-19.24,9.4-28,14-.95.5-1.66.9-2,2-.26.14-.73-.13-1,0-1.39.69-2.77,1.42-4.18,2.11-.38.18-4.13,4.89-4.81.4l11.45-7.49,1.54-5.02-10.45,2.03-4.52-2.03-1.51,2.97-3.99-1.99-1.52,3.99,3.98,1.51-3.97.5,1.99,3.99c-4.24-.08-6.64,2.02-10.37-.91l-7.63,4.93,2.36,1.89.64,2.09-6.78,1.22-3.38,8.63-4.89,1.53-.95,4.64-3.04-.52-2.9,5.95,2.94,3.56c-2.49-2.33-11.68,2.87-7.99-3,.36-.57.33-2.04,1-3,3.35-2.27,6.6-6.14,8-10,.15-.17.85.17,1,0,2.28-2.45,4.24-5.16,6-8,11.1-12.28,23.67-22.76,38-31ZM130.99,35.14h-3.99v1.99h3.99v-1.99Z"/>
      <path class="cls-11" d="M71,85.13l3.92-1.92,3.06,3.41-2.98,3.49,5,.51,1.99,4.5c-3.08-1.64-3.87.93-5.97,1.56-1.63.49-7.56-.4-8.88.57l-.18,3.41,6.05,1-.99,9.02c-2.95-1.19-8.3.98-4.5,4.45l4.8-1.83,10.05,2.7,3.33-2.73c5.81,2.07,14.94.88,20.31-2.14l2,1v1c-.29.11-.72-.12-1,0-1.62.7-3.33,1.29-5,2-.68.29-1.34.66-2,1-4.13,2.05-9.49-.3-13,2-2.66,0-5.34.07-8,0-.13,0-.76-1.57-2.02-.57-.99.63-.7,1.82-.98,2.57-2.07,5.57-3.48,11.57-6,17,.27-5.39-1.5-3.61-3.38-5.99-.42-.53.24-1.91-1.01-3.02-1.31-1.17-3.58-1.41-4.34-2.26-2.27-2.55-5.62-14.03.74-12.73l-.02-7.99c-3.31,2.22-4,7.56-5.56,10.93-.33.72-1.37.92-1.43,1.07,3.71-11.48,9.96-21.73,16-32ZM72,129.14h-2s0,1.99,0,1.99l1.99-1.99Z"/>
      <path class="cls-5" d="M335,59.13c.59.1,1.35.78,2,1,40.97,44.01,55.56,106.24,37,164h-1c-.5-.97-1.19-.62-2,0,1.86-4.64,1.03-10.43,3.97-12.69-.47-4.63,2.01-8.64,2.77-13.06,2.69-15.48,1.43-30.77.25-46.59l-2.03-1.33c-.64-19-11.96-54.12-24.97-68.33-1.58-4.36-5.11-7.58-8-11-2.3-2.73-5.24-6.95-8-9l-2-2h-1c0-.19.01-.95,0-1,.96.11,2.1-.16,3,0Z"/>
      <path class="cls-69" d="M81,274.13h1c1.02,1.86,3.47,4.34,5,6,2.94,3.19,5.82,5.89,8.31,8.64,9.17,10.1,12.93,12.04,23.69,19.36,5.16,3.51,12.51,9.96,17.88,12.59,5.87,2.87,13.41,5.07,19.65,7.39,7.42,2.75,10.23,3.07,17.47,5.03.28.07.66.92,1,1,8.55,2.07,25.66,4.58,34.55,4.02,1.53-.09,2.25-.63,3.45-1.02-1,2.91-4.45,1.93-7,2.01-.34,1.25,1.11,1.06,2,1.99-6.92.22-13.14-1.32-20-1-47.02-9.47-80.27-27.98-109-66,.81.62,1.5.97,2,0Z"/>
      <path class="cls-12" d="M243,7.13c1.73.3,4.15.63,6,1,.32.06.68-.07,1,0l1,1.99c-1.77-.33-3.26-.17-5,0-.65.07-1.35-.07-2,0l-8.46-2.45c-2.68.38-5.36.61-8.09.5-4.19-.17-9.04-3.61-10.45,1.96-.36-.34-.7-.57-1-1-.27-.38.07-1.82-.93-2.51-1.39-.49-2.92.36-4.07.51-6.52.8-14.11.37-18.61,3.71-3.63-.46-7.19-2.68-10.49-.04-.46,2.35-1.04,3.72-3.57,4.16-11.5-8.12-8.16,2.29-9.34,3.17l-4.96-2.03-.03-2.97c2.38,1.4,4.16-1.6,5.99-3,27.33-6.76,45.35-7.78,73-3Z"/>
      <path class="cls-10" d="M49,208.13l3,2-.99-12.28,2.11-2.57c3.2,0,3.18,3.81,6.88,1.85.2.88-.25,2.38,0,3.01-5.79-.08-7.39,7.87-7,12.42.16,1.84,1.61,3.14,2,4.58,1.82,6.74,2.22,12.17,6.04,18.25,2.67,4.24,3.4,9.59,5.96,14.75v2.99c.66.05,1.34-.04,2,0,.6,2.31,1.62,4.45,2.23,6.76l3.74,1.29c-1.56,3.51,3,7.41,5.03,10.95.23.4.64.71,1,1v1c-.5.97-1.19.62-2,0-12.85-17-26.58-43.64-30-65-.05-.32.05-.67,0-1Z"/>
      <path class="cls-52" d="M215,325.13l.69.81,3.31.19c.66.03,1.34-.05,2,0,5.27.37,10.71-.27,16,0l-6.61,4.7-9.39-1.72-1.01,6.51,2.01-1.5,2.43,2.07c3.85-.7,10.01-2.74,13.85-2.1.3.05,3.84,3.46,4.7,4.01-2.91-.72-5.87,1.58-8,2.01-14.59,2.96-32.6,2.9-47,0,6.86-.32,13.08,1.22,20,1,.33-.01.67.02,1,0,2.51-.17,2.57.24,5-1,5.95-3.05,6.95-9.85.97-13.48-1.58-.92-3.31-.41-4.97-.52l-6-2c3.63.39,7.35.72,11,1Z"/>
      <path class="cls-58" d="M163,12.13c-2.21,3.55,2.74,7.31,5.66,7.71,2.65.36,3.01-1.48,7.34.29l.08,5.91,7.92.09c-6.54,2.1-13.6,3.62-20,6l-3.98-1.98c2.51-2.21,4.49-1.48,6.74-2.3.32-.12,2.39-3.67,2.92-3.76,2.18-.36,3.72,2.09,5.31-.45l-4.49-3.17-6.85,3.52-4.26-5.91c-5.85-1.16-18.04,5.21-23.61,8.13-1.9,1-4.2,5.03-8.27,3.93l1.49-3.01c11.67-6.71,21.18-11.27,34-15Z"/>
      <path class="cls-7" d="M274,16.13c1.29.79,2.3,1.3,2,3-3.19-.11-5.48-2.44-8.76-2.76-2.99-.29-7.43.35-10.78-.64-1.25-.37-1.54-2.45-3.16-3.42-3.3-1.98-5.73,1.05-7.31-2.19,1.74-.18,3.23-.34,5,0l-1-1.99c9.77,2.03,15.09,4.37,24,8Z"/>
      <path class="cls-66" d="M58.73,266.29c8.64-1.66,12.75,12.97,3.53,14.69-10.03,1.87-12.52-12.96-3.53-14.69ZM57.13,269.27l-.65,6.86,3.06,2.02,3.47-.5,1.9-4.02-1.4-3.52-6.38-.84Z"/>
      <path class="cls-44" d="M323.23,1.37c3.55-3.55,11.8.32,9.27,5.75-4.01,8.61-15.04.01-9.27-5.75Z"/>
      <path class="cls-41" d="M313,35.13c2.14,5.27,8.42,8.97,12.53,12.97,3.31,3.22,6.29,6.72,9.47,10.03v1c-.9-.16-2.04.11-3,0-.21-.72-.83-2.33-1.32-2.73l-19.68-18.27c-.04-.33.05-.68,0-1-.1-.6.03-1.34,0-2h2Z"/>
      <path class="cls-4" d="M298,25.13c2.02-.32,5.01-3.03,7.48-3.09,6.7-.16,10.48,7.36,7.52,13.09h-2c-.04-1,.03-2,0-3,.89-.61.12-.71,0-1-2.9-6.99-5.7-5.66-12-4h-2s1-2,1-2Z"/>
      <path class="cls-57" d="M298,25.13l-1,1.99h2c-5.27,1.4-3.62.56-8-.99-3.2-1.14-6.18-2.91-9-4-2.05-.79-3.72-1.84-6-2v-1c.3-1.7-.71-2.21-2-3,.57.23,1.74.12,2.87.58,5.31,2.18,16.17,9.19,21.13,8.42Z"/>
      <path class="cls-47" d="M373,224.13v2c-.67,1.97-1.27,4.05-2,6-1.13.19-1.54,1.63-2,2l-7.01-1.49-.98-4.51,3.49,2.69,3.53-1.28c.75-1.74,2.34-3.82,2.97-5.41.81-.62,1.5-.97,2,0Z"/>
      <path class="cls-27" d="M28.86,58c-2.35,1.66-9.26-1.48-5.95-5.44,4.18-5,9.55,2.9,5.95,5.44Z"/>
      <path class="cls-36" d="M13,183.14v-6.01c3.8-.34,6.86-.16,5.92,4.41l-.87,1.14-5.05.46Z"/>
      <path class="cls-42" d="M211,7.13v1c-1.4-.21-4.65,2.13-6,3-1.47-.3-7.5-.94-8.39-.78-1.11.2-1.73,1.83-2.63,2.25-2.83,1.33-6.05.71-8.49-1.08l-1.84.54-4.65,8.06c3.25,2.06,5.66-.38,7.9-.47,1.32-.05,2.19.44,3.1.48l-11.94,2.9-.25-2.68c-.47-.63-1.46-.08-1.81-.22-4.33-1.78-4.68.06-7.34-.29-2.92-.39-7.87-4.16-5.66-7.71,2.4-.7,4.54-1.39,7-2-1.83,1.4-3.62,4.4-5.99,3l.03,2.97,4.96,2.03c1.18-.88-2.17-11.29,9.34-3.17,2.53-.44,3.11-1.8,3.57-4.16,3.3-2.64,6.86-.42,10.49.04,4.5-3.34,12.09-2.91,18.61-3.71Z"/>
      <rect class="cls-38" x="342.54" y="23.68" width="2.9" height="2.9" transform="translate(143.82 306.01) rotate(-58.7)"/>
      <path class="cls-67" d="M2.99,163.13H0s0-2.99,0-2.99c1.89-.32,3.32,1.17,2.99,2.99Z"/>
      <path class="cls-46" d="M76,76.13c2.58-3.7,4.97-6.68,8-10-1.4,3.86-4.65,7.73-8,10Z"/>
      <path class="cls-7" d="M249,8.13c-1.85-.37-4.27-.7-6-1,1.87.16,4.9-.78,6,1Z"/>
      <path class="cls-6" d="M373,226.13v-2h1c-.3.93-.85,1.55-1,2Z"/>
      <path class="cls-46" d="M85,66.13c.54-3.35,3.91-5.69,6-8-1.76,2.84-3.72,5.55-6,8Z"/>
      <path class="cls-51" d="M337,60.13c-.65-.22-1.41-.9-2-1v-1c.65.68,1.33,1.28,2,2Z"/>
      <path class="cls-61" d="M125,76.13c2.43,11.32-2.4,18.92-8,28-3.32.66-2.96,2.26-4,4-.15.25.15.76,0,1l-5,3-2-1c3.45-1.94,2.14-3.53,3.14-4.84.1-.13,1.33.61,2.34-.09,5.55-3.81,7.32-10.45,9.57-16.33.34-.88,1.12-.82,1.89-.79v-1.93s-1.96-.53-1.96-.53l.04-1.47c5.76-1.47-1.11-8.7,1.98-13.02.93-.29,1.86,3.41,1.99,3.99Z"/>
      <path class="cls-6" d="M345,95.13c-.5-3.25-1.09-4.73,1-7.99l-2.99,1-1.01-11,3.44,1.06,1.54-2.06c.39,1.24,1.52,5.27,2.21,5.82.61.5,1.69.05,1.8.17,13,14.21,24.32,49.33,24.97,68.33l2.03,1.33c1.18,15.81,2.44,31.1-.25,46.59-.77,4.42-3.24,8.43-2.77,13.06-2.95,2.26-2.11,8.05-3.97,12.69-.64,1.58-2.23,3.67-2.97,5.41l-3.53,1.28-3.49-2.69.98,4.51,7.01,1.49c-.91.72-.76,1.1-2.45,1.05-7.38-.21-5.74-3.33-7.63-8.28-.44-1.16-1.65-.04-1.92-2.77l4,2c-.17-1.92.26-4.14,0-6l1-9c-2.31-.61-2.15,1.36-3,3-.71-1.49-.54-3.65-1-5l2.99-.48c-3.39-4.9-6.11-8.96-7.99-14.52l2.25-4.81,2.76-.7-5.06-5.03,5.04-6.95-4.99-3.51c3.62-7.69,10.38-8.01,12.04-16.27l1.94-.75-.04-1.94-2.03-.64c1.06-3.12,1.55-4.86-1.91-6.4-.56-4-1.63-8.02-2-12s.28-8.3.03-12.31l-3.02-2.2,2-.96c-1.19-4.62-5.71-6.26-5.17-10.84l-3.83-2.7c-.99-1.79-4.74-3.64-1.02-6.51l-2.98.51c.18-1.74-.16-3.49-2-4-.08-.29.05-.66,0-1Z"/>
      <path class="cls-35" d="M358,216.13l1.9.09c-.45,1.5,1,3.21,1.1,3.91.26,1.85-.18,4.07,0,6l-4-2c-.17-1.64.11-3.35,0-5,.45-1.06.65-2.25,1-3Z"/>
      <path class="cls-40" d="M55,189.13l9,9.57,2.99-1.57,2.01,5c.42,1.85.49,4.24,1,6h-2c-.76-1.95-1.87-3.83-2.05-5.98l-2.91.51c-.41-.8-2.97-2.35-3.04-2.53-.25-.63.2-2.13,0-3.01-3.7,1.96-3.68-1.84-6.88-1.85l-2.11,2.57.99,12.28-3-2c-.69-4.97-1.2-10.29-.84-15.35.45-1.41,5.46-3.55,6.84-3.65Z"/>
      <path class="cls-2" d="M55,189.13c3.3-.25,4.28,2.41,5.97,4.56l3.03-.57-2.99-.99.9-3.89-2.9-2.1,2.01-.65c-1.46-4.58,1.34-7.77,1.94-10.91.48-2.51-1.54-8.27,2.04-7.45.33,5.37-.45,11.16.02,16.48.25,2.86,1.63,5.39,1.99,7.52.63,3.72,1.17,7.31,2,11l-2.01-5-2.99,1.57-9-9.57Z"/>
      <rect class="cls-46" x="127" y="35.14" width="3.99" height="1.99"/>
      <path class="cls-46" d="M134,48.13c.34-1.1,1.05-1.5,2-2-.34,1.11-1.05,1.5-2,2Z"/>
      <path class="cls-46" d="M100,116.13c-5.41,2.77-7.04,2-13,2,3.51-2.3,8.87.05,13-2Z"/>
      <path class="cls-46" d="M107,113.13c-1.07,1.72-3.12,2.05-5,2,1.67-.71,3.38-1.3,5-2Z"/>
      <polygon class="cls-33" points="72 129.14 70 131.13 70 129.14 72 129.14"/>
      <path class="cls-46" d="M79,118.13c-1.68-.38-2.2.77-3,2,.28-.76-.02-1.94.98-2.57,1.27-1,1.89.57,2.02.57Z"/>
      <path class="cls-46" d="M113,109.13c-1.03,1.62-3.21,3.31-5,4v-1l5-3Z"/>
      <path class="cls-51" d="M276,34.13l1.51-3.02,8.49,1.02-1,3.99c4.61.43,7.5-2.23,11.48,1.02l2.01-3.01c2.9,1.12,2.5,7.04.51,8.99l5.97.97.09-2.86,3.15-.09,2.78-3.01,19.68,18.27c.5.41,1.11,2.02,1.32,2.73.01.05,0,.81,0,1-.02,1.91-1.41,4.52-.81,5.8l10.31,8.22,1.5-3.03c2.89,3.42,6.42,6.64,8,11-.11-.12-1.19.33-1.8-.17-.69-.56-1.82-4.58-2.21-5.82l-1.54,2.06-3.44-1.06,1.01,11,2.99-1c-2.09,3.27-1.5,4.74-1,7.99l-6-8-.5-3-2.41,2.65c-.4,1.42.87,1.27.91,1.35.24.45.53.78,1,1-.19.04-.41,1.32-3,0l.74-3.56c-2.42-.9-2.33-2.89-2.74-3.44l2.99-.49c-6.56-5.84-10.47-14.1-16.94-20.09-1.05-.97-9.76-6.97-10.85-7.2-3.12-.66-5.85,1.07-9.21.77v-4.54s3.91-.94,3.91-.94l-.92-3.52c-1.58-.32-.95,1.85-1.95,2.52-2.7,1.8-7.78-1.15-11.04-.53l2-.99-.94-4.53,3.94-1.97c-1.83-2.78-4.14-.09-6.35-.46-.18-.03-.7-1.18-2.65-2.05-1.06-.48-2.18-.64-3-1-.1-.04-.39-.7-1-1-.27-.14-.75.14-1,0-.35-.97-.99-1.69-2-2-.56-.17-1.51.18-2,0Z"/>
      <path class="cls-59" d="M333,60.13l.17,1.83c.49.47,1.62.02,1.83.17,2.76,2.05,5.7,6.27,8,9l-1.5,3.03-10.31-8.22c-.6-1.28.79-3.9.81-5.8h1Z"/>
      <path class="cls-51" d="M335,62.13c-.2-.15-1.34.3-1.83-.17l-.17-1.83,2,2Z"/>
      <path class="cls-20" d="M55,217.13l2-2.53-1.99.53v-5.01s4,0,4,0l-.74-1.72c-.37-2.3,3.04-2.96,4.57-2.08l6.16,5.81c.4,1,1.52,1.96,2,3,.84,1.8-.26,4.76,3.99,5.02l-2.99,2.48,3.99.51-.55,7.04,4.56.96-1,2.99,3.48-1.64,3.23,2.63,3.28.02-2.5,1.96.5,2.03-3.99-.51,1.46,5.54,4.9,2.1,1.63,2.86h-7s.8,1.85.8,1.85l-1.8,2.14,8.99-.98-.7,2.52,9.7,3.47c.07.32-.08.7,0,1,.21.76.97.93,1,1,1.73,4.34,2.8,4.85,6,8l1,7,5.45-.07.52,2.33,3.03.74c.53,2.98-1.04,1.78-3,2-5.32-3.68-8.09,1.94-11.99,4l-.92-8.56-4.51-4.15-5.54.67-.54-2.98-1.47,2.54-4.03.48c1.73,1.9,3.45,2.73,3.99,5.5.2,1.05-4.02-.7-2.99,2.49-1.53-1.66-3.98-4.14-5-6-.57-1.04-.45-3.06-1.02-4.27l-1.96-.74v-1.97s1.98-.47,1.98-.47c-.95-.96-.9-2.42-1.52-3.53-1.67-3-1.16,1.73-2.47.98l-.49-5.02-4.53-2.01,1-3.97c-1.32-.08-2.68.1-4,0-.21-.8.19-2.07,0-3h-1.99c-2.56-5.17-3.29-10.51-5.96-14.75-3.82-6.08-4.23-11.51-6.04-18.25ZM96.99,258.14h-2.99v2.49s1.5,1.49,1.5,1.49l1.49-1.49v-2.49ZM99.5,259.13v1c.65-.33.65-.67,0-1Z"/>
      <path class="cls-20" d="M113,280.13c-.89,3.25,4.76,1.47,6.5,1.52,1.86.06,2.78,1.85,5.72.43.97-.47.79-2.55,2.78-1.95.75.46,2.35.57,2.75,1.21.56.89,1.56,7.82,2.75,7.77l5.49-3.99c-.74,1.61.95,3.45,1.01,4.01.04.33-1.09,1.5-1,2.37.03.24,2.38,3.22,2.75,3.65.82.95,6.23,5.75,6.89,5.9,1.37.3,2.63-2.68,4.36-1.48l1.73,2.22-.73,2.32,5,1.02-2.99-3.98,6.99-1.01-1.95,5.4,5.8,5.27,1.16,8.33c.04.2.82.6,1,1-1.05-.37-2.94.92-3.27-1.66l-2.73-.34-1.49,4.99-2.64-4.85c-7.89-1.85-5.09,4.12-.06,5.1l.19,2.76,1.98-.02.66-2,4.36.03-4,5.98c4.17.82,8.79,2.65,12.47,0l-.48,3.01c-7.24-1.96-10.05-2.28-17.47-5.03-6.24-2.31-13.78-4.51-19.65-7.39-5.37-2.63-12.72-9.08-17.88-12.59l2-3c3.72-1.03,1.24,4.11,2,5.01h3.36s1.2-2.04,1.2-2.04c3.57,2.26,3.68-1.91,8.46-1.44,3.05-1.49-3.83-3.16-4.11-3.95l-1.05-3.44-3.69-.27-1.18-4.35c.03-.42,7.33-.31,8.5-.54,1.62-.32,1.74.66,1.51-1.97l-18-1.01,5-4.99c-2.91-.48-4.67,1.3-5.01,3.99l-3.96-2c-2.13,6.07-3.16,1.04-2.02-3-.81-.75-6.06,1.71-5-1.99,3.81.45,2.81-2.56,6-3.01ZM143.88,315l-3.35-.86-.54-7.01-5.52,6.01-3.46-2.01.61,3.06c2.86,2.31,6.87.9,7.19,1.1.24.15.23,1.39.88,1.83s1.31.68,2.04.86l7.28-1.86-2.7-2.3-.33-1.68-2.1,2.86Z"/>
      <path class="cls-14" d="M87,280.13c-1.03-3.19,3.19-1.44,2.99-2.49-.54-2.78-2.26-3.61-3.99-5.5l4.03-.48,1.47-2.54.54,2.98,5.54-.67,4.51,4.15.92,8.56c3.91-2.06,6.67-7.68,11.99-4-.65.07-1.36-.09-2,0-3.2.46-2.19,3.46-6,3.01-1.05,3.7,4.19,1.24,5,1.99-1.14,4.03-.11,9.06,2.02,3l3.96,2c.34-2.69,2.11-4.47,5.01-3.99l-5,4.99,18,1.01c.23,2.63.11,1.65-1.51,1.97-1.17.23-8.47.11-8.5.54l1.18,4.35,3.69.27,1.05,3.44c.29.79,7.16,2.46,4.11,3.95-4.78-.47-4.89,3.71-8.46,1.44l-1.2,2.04h-3.36c-.76-.89,1.72-6.04-2-5l-2,3c-10.76-7.32-14.52-9.26-23.69-19.36-2.49-2.74-5.37-5.45-8.31-8.64Z"/>
      <path class="cls-29" d="M174,333.13l.48-3.01c-3.68,2.65-8.3.82-12.47,0l4-5.98-4.36-.03-.66,2-1.98.02-.19-2.76c-5.04-.98-7.83-6.96.06-5.1l2.64,4.85,1.49-4.99,2.73.34c.33,2.58,2.22,1.28,3.27,1.66,5.29,1.9,8.48,2.9,14,4,.32.06.68-.06,1,0,1.06,3.18,4.79,1.48,7.35,2.19,1.02.25,1.19,1.13,1.65,1.81.58.85.9,1.98,1.02,3l7.02-.54-.05,4.53c-2.78.86-1.83-1.84-2.93-2.51-4.15-2.52-7.33,1.34-9.63,1.55-1.86.17-4.29-2.24-7.09-1.73-2.16.4-3.83,2.38-6.34,1.69-.34-.08-.72-.93-1-1Z"/>
      <path class="cls-60" d="M201,328.13c4.79.62,3.98,1.82,4.68,1.99,1.86.44,4.34-.25,6.32.01.69.09,2.41,1.69,3.99,1.01l-.99,4.99-1,1c-.22.13-.67-.11-1,0-1.2.4-1.93.93-3.45,1.02-8.89.55-26-1.96-34.55-4.02,2.51.69,4.18-1.29,6.34-1.69,2.79-.51,5.23,1.9,7.09,1.73,2.3-.21,5.47-4.08,9.63-1.55,1.1.67.16,3.36,2.93,2.51l.05-4.53-7.02.54c-.12-1.03-.44-2.15-1.02-3,3.19-.68,5.04-.39,8,0Z"/>
      <path class="cls-17" d="M210,326.13c1.66.11,3.39-.4,4.97.52,5.98,3.63,4.99,10.43-.97,13.48l-4.31.19-.69.81c-.33.02-.67-.01-1,0-.89-.93-2.34-.74-2-1.99,2.54-.08,5.99.9,7-2.01.33-.11.78.13,1,0l1-1,.99-4.99c-1.58.67-3.3-.92-3.99-1.01l-7.99-3.01c.1-1.76,4.76-1.07,5.99-.99Z"/>
      <path class="cls-32" d="M67,250.13h1.99c.19.93-.2,2.2,0,3,1.32.1,2.68-.08,4,0l-1,3.97,4.53,2.01.49,5.02c1.31.75.8-3.98,2.47-.98.61,1.1.57,2.56,1.52,3.53l-1.97.47v1.97s1.95.74,1.95.74c.57,1.22.45,3.23,1.02,4.27h-1v-1l-1-1c-2.03-3.53-6.59-7.43-5.03-10.95l-3.74-1.29c-.61-2.31-1.63-4.45-2.23-6.76-.66-.05-1.34.05-2,0v-2.99Z"/>
      <path class="cls-37" d="M211,8.13c1.09.16,2.57,2.77,5,1,.3.43.64.66,1,1s.14,1.58,2,1v-3.01c6.85,1.67,13.66,3.93,20.44.97l1.13,2.1c1.15-.21,2.29-.92,3.43-1.05.65-.07,1.35.07,2,0,1.58,3.24,4.01.21,7.31,2.19,1.62.97,1.91,3.05,3.16,3.42,3.35.98,7.79.35,10.78.64,3.28.32,5.57,2.65,8.76,2.76v1c-.77-.05-1.54-.17-2.3,0-1.11,3.09-3.83,1.14-6.7,1.98l4-3.98c-2.86-.12-5.66-.57-7.5,1.99l-.98-2-3.04,2.01-.64-1.73c-3.27,1.58-3.76-1.92-6.38-2.32s-5.37,1.46-7.89,2.09l-1.8-2.38-5.13.39-.69-2.01-3.93.94.98,5.98,4.38.79,2.61-1.76.64,2.04c3.15,0,4.89-1.56,7.37.95l.02-2,1.63,2.07c8.01-2.61,13.05,7.25,20.37,8.93.15.17,3.79,1.92,4,2l.97,1.5-.97.5c-.27-.13-.73.13-1,0-1.35-.63-1.87-1.24-4-2-6.09-2.16-14.52-4.43-21-6l9,1c-.36-5.43-4.38-3.06-6.52-3.46-7.59-1.44-13.72-2.54-21.48-3.53-1.32-.07-3.29-2.71-3.51-2.76-2.68-.62-8.12-.26-10.83-.58-1.24-.15-2.5-2.42-4.66-.65-.06-.66.07-1.35,0-2s.06-1.34,0-2l-2.99.99,1-2.99c-1.38-.12-2.66-.73-4.01-1.01,1.35-.87,4.6-3.21,6-3Z"/>
      <path class="cls-7" d="M244,10.13c-1.14.13-2.28.84-3.43,1.05l-1.13-2.1c-6.79,2.96-13.59.7-20.43-.97v3.01c-1.87.57-1.64-.67-2.01-1,1.42-5.57,6.26-2.13,10.45-1.96,2.74.11,5.41-.12,8.09-.5l8.46,2.45Z"/>
      <path class="cls-7" d="M216,9.13c-2.43,1.77-3.91-.84-5-1v-1c1.15-.14,2.69-1,4.07-.51,1,.68.66,2.13.93,2.51Z"/>
      <path class="cls-62" d="M60,200.13c.07.18,2.63,1.73,3.04,2.53l2.91-.51c.18,2.15,1.29,4.03,2.05,5.98.6,1.52.64,3.11,1,4l-6.16-5.81c-1.53-.88-4.94-.22-4.57,2.08l.74,1.72h-4s0,5,0,5l1.99-.53-2,2.53c-.39-1.44-1.84-2.75-2-4.58-.39-4.55,1.21-12.49,7-12.42Z"/>
      <path class="cls-69" d="M81,273.13c-.36-.29-.77-.6-1-1l1,1Z"/>
      <path class="cls-69" d="M214,340.13c-2.43,1.24-2.49.83-5,1l.69-.81,4.31-.19Z"/>
      <path class="cls-53" d="M219,326.13l-3.31-.19-.69-.81c1.09.08,2.23-.21,3.31.18l.69.82Z"/>
      <polygon class="cls-65" points="57.13 269.27 63.51 270.11 64.92 273.63 63.01 277.65 59.54 278.15 56.48 276.14 57.13 269.27"/>
      <path class="cls-26" d="M291,26.13l2,6c2.67.86,1.47-1.47,2.73-1.96l3.78-1.03-.51,2.98,6.36.02,2.13-2.01,3.51,6.99c.05.32-.04.67,0,1l-2.78,3.01-3.15.09-.09,2.86-5.97-.97c2-1.95,2.4-7.87-.51-8.99l-2.01,3.01c-3.98-3.25-6.87-.59-11.48-1.02l1-3.99-8.49-1.02-1.51,3.02c-.29-.11-.71.11-1,0-.21-.08-3.85-1.83-4-2-.16-.19.27-1.34-.08-1.9-.76-.89-7.29.39-3.92-3.63l6.52-2.27,5.83,2.69,1.66-2.39-2.01-.52,3-1.99c2.82,1.09,5.8,2.86,9,4Z"/>
      <path class="cls-43" d="M299,27.13c6.3-1.66,9.1-2.99,12,4v1c.03,1-.04,2,0,3,.03.66-.1,1.4,0,2l-3.51-6.99-2.13,2.01-6.36-.02.51-2.98-3.78,1.03c-1.26.49-.06,2.82-2.73,1.96l-2-6c4.38,1.55,2.73,2.39,8,1Z"/>
      <path class="cls-41" d="M311,32.13v-1c.12.29.89.39,0,1Z"/>
      <path class="cls-30" d="M271,32.13c-7.32-1.68-12.35-11.53-20.37-8.93l-1.63-2.07-.02,2c-2.48-2.5-4.22-.95-7.37-.95l-.64-2.04-2.61,1.76-4.38-.79-.98-5.98,3.93-.94.69,2.01,5.13-.39,1.8,2.38c2.52-.63,5.18-2.51,7.89-2.09s3.11,3.9,6.38,2.32l.64,1.73,3.04-2.01.98,2c1.85-2.56,4.64-2.1,7.5-1.99l-4,3.98c2.87-.85,5.58,1.1,6.7-1.98.76-.18,1.53-.06,2.3,0,2.28.16,3.95,1.21,6,2l-3,1.99,2.01.52-1.66,2.39-5.83-2.69-6.52,2.27c-3.38,4.02,3.16,2.74,3.92,3.63.36.55-.08,1.71.08,1.9ZM253.99,18.14h-1.99v.98h1.99v-.98Z"/>
      <path class="cls-8" d="M363,147.13c3.46,1.54,2.98,3.29,1.91,6.4l2.03.64.04,1.94-1.94.75c-1.66,8.26-8.41,8.58-12.04,16.27-.48,1.02-1.8,2-1.62,3.52.14,1.19,2.26,1.75,1.61,3.48l-2-.5c-.67,5.76.25,9.33,2,14.5,1.88,5.56,4.6,9.62,7.99,14.52l-2.99.48c-1.63-4.79-7.08-10.54-9.07-15.43-3.46-8.5-2.34-18.79,3.07-26.11,3.06-4.14,11.67-6.8,10-13.46l2.05-.64c-.35-2.12-.76-4.26-1.05-6.36Z"/>
      <path class="cls-49" d="M209,20.13c8.32-.02,13.3,1.02,21,2s13.88,2.09,21.48,3.53c2.14.41,6.16-1.96,6.52,3.46l-9-1c-14.74-3.56-27.1-4.27-42-5-.29-.35-.6-.79-1-1,.42-1.44,1.54-2,3-2Z"/>
      <path class="cls-18" d="M70,208.13c.32,1.09,1.47,2.24,1.06,3.93l9.94,1.07c-1.17-.1-5.92-.75-6,.99,3.22-1.49,4.16,1.85,4.69,1.98,5.03,1.2,11.73.97,15.86,4.98,1.45,1.41,7.93,11.25,8.26,12.78.61,2.85-2.85,6.85-.8,10.27l2.99-3c-.49,2.66-1.48,5.53-2,8-.03.13-.81.57-.98,1.5-.46,2.61.26,5.78-.03,8.49l-1.99-2v-1l-1.01-14-4.99-1c.23-.25.04-1.97.96-2.59s3.89,2.08,5.05-3.9c.1-.49-.04-1.02-.03-1.51-5.46,4.04-10.74-1.86-2.99-5.5l-2.02-1.13v-4.33c-5.13-.71-4.51-1.28-7.56,1.89-1,1.05-1.27,1.38-2.91,1.07l-2.48-6.58c-3.96.91-4.6-1.01-8.03-2.41-1.19-.49-2.75-.57-4-1-.48-1.04-1.6-2-2-3-.36-.89-.4-2.48-1-4h2Z"/>
      <path class="cls-31" d="M299,55.13c3.36.29,6.09-1.43,9.21-.77,1.09.23,9.8,6.23,10.85,7.2,6.47,5.99,10.37,14.25,16.94,20.09l-2.99.49c-3.29-4.33-21.87-24.97-25.74-25.81-1.63-.36-3.02.82-4.26.81-.2,0-1.58-1.64-3-1l1,2c-4.21,1.91-3.33.41-6,0l4-2c-3.05,0-7.36.02-9-3,3.23-.53,6.08,1.74,9,2Z"/>
      <path class="cls-68" d="M81,213.13c2.82.25,13.97,2.79,15.73,4.28,1.5,1.27,8.69,12,9.47,14.03,1.11,2.87.31,6.9-.2,9.69l-2.99,3c-2.05-3.42,1.41-7.42.8-10.27-.33-1.53-6.81-11.37-8.26-12.78-4.13-4.01-10.83-3.78-15.86-4.98-.53-.13-1.47-3.47-4.69-1.98.07-1.74,4.83-1.1,6-.99Z"/>
      <path class="cls-13" d="M130,269.13c1.44.35,1.5,2.17,2.79,2.97,3.65,2.25,9.1,1.64,13.47,4.07.6.33.69,1.52,1.5,1.91,2.67,1.27,6.89.7,9.24,3.06-2.13-.98-6.61-.43-8.99-2l4.99,5c-1.08.25-2.84,2-4.9.89l-2.73-5.84c-1.77-1.39-3.88.26-5.7,0-.8-.12-.64-1.86-1.87-2.36-3.62-1.49-5.79,1.17-6.4-3.79-.6-.44-6.29-.93-7.4-.89-.62.02-2.42.87-4,1-1.08-1.81-4.12-.8-6-1.01l1-.99c4.79.11,10.12-3.17,15-2Z"/>
      <path class="cls-26" d="M285,38.13c1.94.88,2.46,2.02,2.65,2.05,2.21.37,4.51-2.32,6.35.46l-3.94,1.97.94,4.53-2,.99c3.26-.62,8.34,2.33,11.04.53,1-.67.37-2.84,1.95-2.52l.92,3.52-3.92.94v4.54c-2.91-.26-5.75-2.53-8.99-2-.89-1.63-2.93-4.39-2.99-4.68-.41-1.89.22-4.32,0-6.32l1-.5-.5-.5-.5,1c-.72.03-1.7,1.43-2,2,.44-2.07-.18-3.13-2-4h3s-1-2-1-2Z"/>
      <path class="cls-24" d="M209,20.13c-1.46,0-2.58.56-3,2-1.26-.65-3.32-1.89-4,0-.34.02-.74-.07-1,0-1.46,0-2.58.56-3,2-3.3,1.24-4.51-1.52-11,1-.81.31-1.72.91-2,1-.3.1-.7-.1-1,0l-7.92-.09-.08-5.91c.35.14,1.34-.41,1.81.22l.25,2.68,11.94-2.9c1.66.06,3.34-.05,5,0,4.41.13,9.71.01,14,0Z"/>
      <path class="cls-13" d="M154,284.13c.43-.12.95-.78,1.51-.68l5.51,6.66,1.98-2.98c1.39,1.38,1.55,3.09,2.24,3.76.81.79,2.49.65,3.48,1.51,2.4,2.1,4.68,12.41,4.28,15.72h-1l-5.69-10.88c-.88-.22-1.19.85-1.31.88-.3.07-.66-.04-1,0l-1.44-5.99c-1-.99-2.32-1.47-3.56-2.01-.49-2.55-2.26-4.01-4.84-4.18l-.16-1.82Z"/>
      <path class="cls-15" d="M184,322.13c.32.07.68-.07,1,0l.7.81,4.3.19c4.41.69,9.63.54,14,1l6,2c-1.23-.08-5.89-.77-5.99.99l7.99,3.01c-1.98-.26-4.46.43-6.32-.01-.69-.16.11-1.36-4.68-1.99-4.48-2.79-11.6-2.91-17-4-.32-.06-.68.06-1,0l-1-1.99h2Z"/>
      <path class="cls-55" d="M287,42.13c.23,2-.4,4.43,0,6.32.06.29,2.1,3.05,2.99,4.68,1.65,3.02,5.95,3,9,3l-4,2c-1.59-.24-3.18.22-5.04-.44-4.3-1.51-7.05-9.57-4.96-13.56.3-.57,1.28-1.97,2-2Z"/>
      <path class="cls-50" d="M115,270.13v1l-1,.99c1.88.2,4.92-.8,6,1.01-1.97.17-4.02-.11-6,0-2.8-1.15-3.91-2.94-6-5-3.2-3.15-4.27-3.66-6-8l-1-1c-.08-.3.07-.68,0-1v-1l1.99,2c.29-2.71-.43-5.88.03-8.49.17-.94.95-1.37.98-1.5-1.54,9.6,2.8,16.47,11,21Z"/>
      <path class="cls-64" d="M165,307.13c5.13-.62,4.6,4.87,4.01,8l2.99-7h1c-.37,3.13-3.23,5.86-2.56,9,1.29,2.54,7.89,2.74,10.65,3.46,1.3.34,2.52,1.45,2.91,1.54h-2s1,2,1,2c-5.52-1.1-8.71-2.1-14-4-.18-.4-.96-.8-1-1-.8-4.38,2.08-9.29-3-12Z"/>
      <path class="cls-45" d="M157,281.13c.39.18,5.02,5.03,6,6l-1.98,2.98-5.51-6.66c-.55-.1-1.08.56-1.51.68-.31.08-.68-.07-1,0l-4.99-5c2.38,1.57,6.86,1.02,8.99,2Z"/>
      <path class="cls-30" d="M278,34.13c.33,1.14,1.07,1.47,2,2,.25.14.73-.14,1,0l1,1c.82.36,1.94.52,3,1l1,1.99h-3c-2.62-1.24-5.35-2.69-8-3.99l.97-.5-.97-1.5c.29.11.71-.11,1,0,.49.18,1.44-.17,2,0Z"/>
      <path class="cls-8" d="M359,214.13c.84-1.63.69-3.6,3-3l-1,9c-.1-.7-1.55-2.41-1.1-3.91l-1.9-.09c.34-.73.64-1.3,1-2Z"/>
      <path class="cls-22" d="M130,269.13c-4.88-1.17-10.21,2.11-15,2v-1c4.7-.93,10.68-3.77,15-1Z"/>
      <path class="cls-46" d="M117,104.13c-.13.21.26,1.09-.23,1.74-.6.79-2.9,1.33-3.77,2.26,1.04-1.74.68-3.34,4-4Z"/>
      <path class="cls-55" d="M303,57.13c-.44.9-1.39.72-2,1l-1-2c1.42-.65,2.8.99,3,1Z"/>
      <path class="cls-64" d="M190,323.13l-4.3-.19-.7-.81c1.46.3,3.87.82,5,1Z"/>
      <path class="cls-54" d="M206,22.13c.4.21.71.65,1,1-1.5-.07-3.15-1.08-5-1,.68-1.89,2.74-.65,4,0Z"/>
      <path class="cls-51" d="M341,93.13c-.7-1.31-1.67-2.48-2-4,1.87.53,2.17,2.18,2,4Z"/>
      <path class="cls-25" d="M347,106.13c-.5-1.1-1.36-2.68-2-4l2,4Z"/>
      <path class="cls-30" d="M274,36.13l-4-2c2.13.76,2.65,1.37,4,2Z"/>
      <path class="cls-58" d="M187,25.13l-2,1c.28-.09,1.19-.69,2-1Z"/>
      <path class="cls-54" d="M201,22.13c-.27.08-1.73,1.52-3,2,.42-1.44,1.54-2,3-2Z"/>
      <path class="cls-28" d="M353,173.13l4.99,3.51-5.04,6.95,5.06,5.03-2.76.7-2.25,4.81c-1.75-5.17-2.68-8.74-2-14.5l2,.5c.65-1.73-1.47-2.29-1.61-3.48-.18-1.52,1.14-2.51,1.62-3.52Z"/>
      <path class="cls-19" d="M351,106.13l3.83,2.7c-.54,4.58,3.99,6.22,5.17,10.84l-2,.96,3.02,2.2c.25,4.01-.39,8.36-.03,12.31l-4.19-13.41c-.53-5.02-3.28-11-5.81-15.59Z"/>
      <path class="cls-51" d="M347,100.13c-1.5-.31-1.69-2.8-2-4,1.84.51,2.18,2.26,2,4Z"/>
      <path class="cls-48" d="M345,95.13c.05.34-.08.71,0,1,.31,1.2.5,3.69,2,4l2.98-.51c-3.72,2.86.03,4.72,1.02,6.51,2.54,4.59,5.28,10.57,5.81,15.59l4.19,13.41c.37,3.98,1.44,8,2,12,.3,2.1.71,4.24,1.05,6.36l-2.05.64-6.73-27.77c-1.88-7.14-5.25-13.58-8.27-20.23l-2-4c-1.29-2.68-2.63-6.42-4-9,.17-1.82-.13-3.47-2-4-.33.05-.68-.06-1,0-.47-.22-.76-.55-1-1l2-1,6,8Z"/>
      <path class="cls-9" d="M339,87.13l-2,1c-.04-.07-1.31.08-.91-1.35l2.41-2.65.5,3Z"/>
      <path class="cls-26" d="M282,37.13l-1-1c.61.3.9.96,1,1Z"/>
      <path class="cls-26" d="M280,36.13c-.93-.53-1.67-.86-2-2,1.01.31,1.65,1.03,2,2Z"/>
      <path class="cls-34" d="M75,216.13c.78,4.79,3.94,5.36,7.84,7.14l-.76,2.3,2.73.9.2,1.65,1.97-.02.52-1.98,4.51,5.5-2.01,3.51,4.99-.99-.15,3.89-2.59.29-1.25,3.81c.25.22,3.85-.83,4-.99l.04,2.49,2.97,2-3.01,2.5,4,2-4.01,2.01,3.86.14,2.15,3.86v2l-9.7-3.47.7-2.52-8.99.98,1.8-2.14-.8-1.84h7s-1.63-2.88-1.63-2.88l-4.9-2.1-1.46-5.54,3.99.51-.5-2.03,2.5-1.96-3.28-.02-3.23-2.63-3.48,1.64,1-2.99-4.56-.96.55-7.04-3.99-.51,2.99-2.48c-4.26-.25-3.15-3.22-3.99-5.02,1.25.43,2.81.51,4,1ZM82.99,228.14h-1.99v1.99h1.99v-1.99Z"/>
      <path class="cls-63" d="M108,268.13c2.09,2.06,3.2,3.85,6,5,1.75.72,2.71,1.27,4.83,1.18l2.18,6.82,5.98-2.54c.62.32.77,1.39,1.01,1.54-1.99-.6-1.81,1.48-2.78,1.95-2.94,1.42-3.86-.37-5.72-.43-1.73-.05-7.39,1.73-6.5-1.52.64-.09,1.35.07,2,0,1.96-.22,3.53.99,3-2l-3.03-.74-.52-2.33-5.45.07-1-7Z"/>
      <polygon class="cls-34" points="96.99 258.14 96.99 260.62 95.5 262.11 94 260.62 94 258.14 96.99 258.14"/>
      <path class="cls-34" d="M99.5,259.13c.65.33.65.67,0,1v-1Z"/>
      <path class="cls-34" d="M102,260.13c-.03-.07-.79-.24-1-1l1,1Z"/>
      <path class="cls-22" d="M124,272.13l3.99,2.01-1.99,1.98,11.31,1.97,2.18,4.01,3.03-1.98,4.05,2.93-.49,3.44,2.76,1.79-.85,1.84c3.03,1.21,5.08-.18,6.5-2.99,1.38,3.88,3,2.34,4.5,3,.51,2.68-1.48,5.48,1.99,6.65v1.35c-2.69.03-5.6-.35-8.38.07l-2.6-4.57,1.99-1.48c-4.94.09-6.95-2.97-11.99-3.01-.06-.56-1.75-2.4-1.01-4.01l-5.49,3.99c-1.2.05-2.19-6.88-2.75-7.77-.4-.64-2-.75-2.75-1.21-.25-.15-.39-1.22-1.01-1.54l-5.98,2.54-2.18-6.82c-2.11.09-3.08-.46-4.83-1.18,1.98-.11,4.03.17,6,0,1.58-.13,3.38-.98,4-1Z"/>
      <path class="cls-56" d="M140,289.13c5.04.04,7.05,3.1,11.99,3.01l-1.99,1.48,2.6,4.57c2.78-.41,5.69-.04,8.4-.07,1.11-.01,1.14.24,3,0,.34-.04.7.07,1,0l2.11,4.54-2.11,4.46c5.08,2.71,2.2,7.62,3,12l-1.16-8.33-5.8-5.27,1.95-5.4-6.99,1.01,2.99,3.98-5-1.02.73-2.32-1.73-2.22c-1.73-1.21-2.98,1.78-4.36,1.48-.66-.14-6.07-4.94-6.89-5.9-.37-.43-2.73-3.41-2.75-3.65-.09-.87,1.04-2.03,1-2.37Z"/>
      <path class="cls-14" d="M143.88,315l2.1-2.86.33,1.68,2.7,2.3-7.28,1.86c-.72-.19-1.42-.44-2.04-.86s-.64-1.69-.88-1.83c-.32-.2-4.33,1.22-7.19-1.1l-.61-3.06,3.46,2.01,5.52-6.01.54,7.01,3.35.86Z"/>
      <path class="cls-64" d="M201,328.13c-2.96-.39-4.81-.68-8,0-.46-.68-.63-1.56-1.65-1.81-2.56-.71-6.28.99-7.35-2.19,5.4,1.09,12.52,1.21,17,4Z"/>
      <path class="cls-69" d="M214,337.13l1-1-1,1Z"/>
      <path class="cls-39" d="M205,11.13c1.35.27,2.63.89,4.01,1.01l-1,2.99,2.99-.99c.06.65-.06,1.34,0,2-2.55,3.56-10.39.85-10.86,1.16-.53.36-1.41,3.84-5.14,2.84-1.66-.05-3.34.06-5,0-.91-.03-1.78-.53-3.1-.48-2.24.09-4.65,2.53-7.9.47l4.65-8.06,1.84-.54c2.44,1.79,5.66,2.41,8.49,1.08.9-.42,1.52-2.05,2.63-2.25.89-.16,6.92.48,8.39.78Z"/>
      <path class="cls-54" d="M211,16.13c.07.66-.05,1.35,0,2,2.16-1.76,3.42.5,4.66.65,2.71.32,8.14-.04,10.83.58.22.05,2.19,2.7,3.51,2.76-7.7-.98-12.68-2.02-21-2-4.29.01-9.59.13-14,0,3.73,1.01,4.61-2.48,5.14-2.84.47-.32,8.31,2.4,10.86-1.16Z"/>
      <rect class="cls-37" x="252" y="18.14" width="1.99" height=".98"/>
      <path class="cls-1" d="M75,216.13c3.43,1.41,4.07,3.32,8.03,2.41l2.48,6.58c1.64.31,1.91-.03,2.91-1.07,3.04-3.17,2.43-2.6,7.55-1.89v4.33s2.03,1.13,2.03,1.13c-7.75,3.65-2.47,9.55,2.99,5.5-.02.49.12,1.02.03,1.51-1.17,5.98-4.16,3.29-5.05,3.9s-.73,2.34-.96,2.59c-.15.16-3.75,1.21-4,.99l1.25-3.81,2.59-.29.15-3.89-4.99.99,2.01-3.51-4.51-5.5-.52,1.98-1.97.02-.2-1.65-2.73-.9.76-2.3c-3.9-1.78-7.06-2.35-7.84-7.14ZM93,224.14h-2s0,1.99,0,1.99l1.99-1.99Z"/>
      <polygon class="cls-50" points="95 241.13 99.99 242.13 101 256.13 98.85 252.27 94.99 252.13 99 250.12 94.99 248.12 98 245.62 95.04 243.62 95 241.13"/>
      <path class="cls-21" d="M124,272.13c1.11-.04,6.81.45,7.4.89.61,4.96,2.78,2.3,6.4,3.79,1.23.51,1.06,2.25,1.87,2.36,1.82.27,3.93-1.38,5.7,0l2.73,5.84c2.05,1.11,3.81-.64,4.9-.89.32-.07.69.08,1,0l.16,1.82c2.58.17,4.35,1.63,4.84,4.18-1.5-.66-3.13.88-4.5-3-1.42,2.81-3.47,4.2-6.5,2.99l.85-1.84-2.76-1.79.49-3.44-4.05-2.93-3.03,1.98-2.18-4.01-11.31-1.97,1.99-1.98-3.99-2.01Z"/>
      <polygon class="cls-51" points="287 42.13 287.5 41.13 288 41.63 287 42.13"/>
      <path class="cls-16" d="M172,308.13l-2.99,7c.59-3.12,1.13-8.62-4.01-8l2.11-4.46-2.11-4.54c.11-.03.43-1.1,1.31-.88l5.69,10.88Z"/>
      <path class="cls-16" d="M164,298.13c-1.86.24-1.89-.01-3,0v-1.35c-3.48-1.17-1.49-3.98-2-6.65,1.25.54,2.57,1.02,3.56,2.01l1.44,5.99Z"/>
      <rect class="cls-20" x="81" y="228.14" width="1.99" height="1.99"/>
      <polygon class="cls-18" points="93 224.14 91 226.13 91 224.14 93 224.14"/>
    </g>
  </g>
</svg>