<?xml version="1.0" encoding="UTF-8"?>
<svg id="Layer_2" data-name="Layer 2" xmlns="http://www.w3.org/2000/svg" viewBox="0 0 244.3 238.13">
  <defs>
    <style>
      .cls-1 {
        fill: #1c4aa6;
      }
    </style>
  </defs>
  <g id="Layer_1-2" data-name="Layer 1">
    <g>
      <path class="cls-1" d="M95.3,211.39c-15.98,17.51-40.74,33.06-65.31,24.15-9.99-3.63-8.9-6.83-14.43-14.07-1.22-1.6-3.15-2.61-4.49-4.14-3.83-4.36-5.13-10.46-4.9-16.13,1.39-34.47,46.97-77.25,82.24-70.96,6.79,1.21,7.13,3.67,11.79,6.96,2.98,2.11,6.83,2.62,9.51,5.49,18,19.29.18,52.71-14.41,68.69ZM73.44,157.28c4.45-4.88,8.33-8.49,14.01-12.06,2.8-1.76,5.06-1.77,5.62-5.9-.14-1.35-7.02-2.59-8.36-2.76-22.53-2.81-47.71,16.85-60.08,34.34-6.67,9.43-14.65,27.73-10.38,39.12.28.75,1.94,4.01,2.42,4.33.78.51,1.91-1.35,2.25-1.89,3.71-5.97,3.29-7.65,9.79-11.96,7.05-4.68,14.12-7.71,20.78-13.35,9.9-8.39,15.17-20.24,23.95-29.87ZM99.79,144.05c-1.01,2.59-3.35,2.62-4.89,4.49-2.63,3.19-5.48,9.92-7.93,13.82-6.64,10.58-18.98,29.56-29.53,35.73-7.72,4.51-17.31,7.41-25.34,11.8-1.84,1-6.52,3.6-7.75,5-3.25,3.67-1.71,8.9,1.89,11.64,8.25,6.27,22.94,5.09,32.36,2.36,16.78-4.86,37.39-23.58,44.66-39.35,3.66-7.94,7.91-18.48,7.13-27.28-.63-7.11-3.77-15.17-10.6-18.21ZM42.56,198.78c.65.1,1.17-.09,1.77-.29,10.12-3.41,16.57-9.32,22.92-17.59,4.74-6.18,11.4-15.23,15.31-21.82.84-1.41,1.52-2.93,1.83-4.54-9.27,7.05-14.81,17.5-21.8,26.58-2.5,3.26-5.5,7.12-8.6,9.78-3.52,3.04-7.91,4.98-11.43,7.88Z"/>
      <path class="cls-1" d="M174.87,127.25c11.82-1.25,27.19,6.58,36.43,13.62,17.71,13.49,43.23,52.92,28.7,74.76-2,3.01-4.31,3.5-5.96,5.29-2.63,2.86-2.21,6.65-6.83,10.04-14.77,10.85-36.02,4.55-50.2-4.06-20.77-12.61-38.37-44.81-36.18-69.19,1.49-16.64,18.28-28.8,34.04-30.47ZM211.58,149.78c-8.09-7.21-22.75-15.99-33.81-15.91-2.11.01-15.35,2.86-15.49,4.72,1.58,3.63,4.4,3.25,7.32,4.24,3.33,1.12,18.04,13.53,20.93,16.58,10.56,11.17,17.11,27.9,26.28,40.1,2.6,3.47,7.22,6.86,9.16,9.59,1.28,1.8,1.16,3.87,4.1,4.54,5.1,1.17,6.91-8.14,7.14-11.66,1.2-18-12.58-40.56-25.63-52.19ZM215.68,209.06c-5-4.52-10.32-8.85-15.23-13.47-11.52-10.84-20.91-27.8-30.59-40.67-3.14-4.17-9.84-13.69-15.81-9.88-14.28,9.12-2.88,40.68,3.87,52.19,5.41,9.24,14.96,19.87,24.28,25.22,10.64,6.11,26.06,11.13,37.75,5.37,3.72-1.83,7.49-5.48,5.79-9.91-3.44-2.85-6.76-5.88-10.07-8.87ZM177.45,154.65c-.5-.45-3.4-3.24-2.8-1.14.41,1.44,2.51,2.81,3.5,4,8.52,10.18,15.16,22.5,23.82,32.44.28.32,2.22,2.52,2.61,2.07-.17-1.14-.29-2.48-.8-3.51-2.56-5.25-9.17-14.51-12.77-19.48-3.91-5.39-8.66-9.93-13.56-14.38Z"/>
      <path class="cls-1" d="M149.2,11.01c11.64-10.46,30.57-14.8,44.88-7.08,1.86,1.01,3.89,3.07,5.81,3.6,3.57.99,4.94-.25,8.93,2.29,22.22,14.19,9.43,54.18-2.43,71.68-11.16,16.45-35.96,34.62-56.86,27.74-4.26-1.4-5.39-3.9-8.59-5.66-1.94-1.07-3.83-1.4-5.87-2.76-28.3-18.79-5.68-72.01,14.13-89.82ZM190.33,8.63c-2.47-.65-5.5-2.1-8.06-2.18-14.82-.49-24.45,3.48-34.14,14.55-5.85,6.69-17.18,28.84-18.77,37.49-1.03,5.64-1.04,17.25.09,22.83s3.85,10.96,9.49,13.19c1.37-4.21,2.91-8.77,5.33-12.49,1.85-2.86,4.44-5.1,6.46-7.79,2.59-3.45,5.99-9.04,8.16-12.84,6.05-10.61,10.38-36.99,21.1-43.03.99-.56,1.7-.14,2.86-.89,1.08-.7,2.54-3.25,3.53-4.34.81-.89,4.53-3.64,3.94-4.49ZM146.57,92.01c-.85,1.01-1.72,4.64-1.55,5.97.87,6.56,13.71,6.27,18.51,5.93,19.12-1.34,39.3-24.62,46-41.39,5.53-13.85,9.06-40.11-6.8-48.47-2.21-1.16-3.76-2.1-6-.72-7.26,4.5-10.15,7.6-13.96,15.29-4.38,8.84-4.39,19.68-7.17,29.21-2.29,7.83-9.75,19.96-15.82,25.43-3.26,2.94-11.15,6.3-13.21,8.73ZM157.57,77.88c5.91-5.78,11.07-15.51,13.08-23.49,1.08-4.31,2.12-9.08,2.05-13.51-.52.02-.8,1-1,1.43-4.35,8.98-4.85,16.86-10.69,26.44-1.18,1.93-7.36,10.18-7.44,11.32-.04.59-.05.66.57.57.46-.13,2.94-2.26,3.44-2.75Z"/>
      <path class="cls-1" d="M88.91,89.48c-6.78,8.47-15.24,16.03-24.95,20.99-10.81,5.53-26.82,10.12-38.73,6.44-7.13-2.2-19.1-11.03-22.12-18.01-12.57-29.13,15.47-63.58,38.96-78.19,12.66-7.88,33.76-12.56,46.74-3.38,10.82,7.65,15.09,13.47,15.65,27.11.69,17.01-5.12,32.01-15.55,45.05ZM81.88,23.2c1.22-3.15-2.96-4.19-5.37-4.44-28.63-3.01-56.12,23.7-66.47,48.31-4.11,9.77-5.12,22.86,1.38,31.78l.96-.18c4.44-5.2,9.42-9.87,14.76-14.12,15.75-13.05,19.45-32.81,34.16-46.47,2.51-2.33,5.92-4.99,8.66-7.09,3.68-2.82,7.68-5.93,11.91-7.78ZM26.27,92.86c-1.36,1.29-2.96,2.44-4.16,3.9-4.32,5.25-4.8,10.81,2.44,13.32,28.21,9.78,64.2-21.13,71.08-47.43,2.89-11.05,5.14-29.84-6.57-36.4.15,1.95-3.33,1.96-5.08,2.62-3.72,1.41-11.3,7.17-14.44,9.94-12.31,10.9-17.97,26.6-28.13,39-4.52,5.52-10,10.18-15.15,15.04Z"/>
      <path class="cls-1" d="M76.65,213.07c1.49,2.16-6.18,6.85-7.73,7.77-3.73,2.21-8.88,4.41-13.15,5.23-2.01.39-11.08,1.61-11.58-1.01-.29-.9.78-1.64,1.52-1.92,2.48-.96,7.21-1.21,10.26-2.11,2.23-.66,4.94-1.72,7.08-2.67,2.76-1.21,9.58-5.65,11.94-5.7.56-.01,1.13.25,1.65.42Z"/>
      <path class="cls-1" d="M169.83,207.28c-5.02-5.56-12.06-16.69-14.28-23.8-.5-1.59-.33-2.26.3-3.79,1.43-.36,2.14.74,2.9,1.72,4.82,6.16,7.99,14.65,13.58,21.3,1.9,2.26,9.28,8.2,9.92,9.97.9,2.49-1.88,2.2-3.44,1.56-1.9-.78-7.53-5.34-8.98-6.95Z"/>
      <path class="cls-1" d="M92.69,48.06c2.03.61,1.39,3.63,1.14,5.28-1.94,12.8-8.73,25.1-19.05,33.07-1.25.97-2.81,2.24-4.49,1.55-2.59-1.82,5.4-9.26,6.56-10.74,2.55-3.29,6.34-8.44,8.16-12.09s4.2-14.22,6.29-16.21c.4-.38.87-.69,1.39-.87Z"/>
    </g>
  </g>
</svg>