<?xml version="1.0" encoding="UTF-8"?>
<svg id="Layer_2" data-name="Layer 2" xmlns="http://www.w3.org/2000/svg" viewBox="0 0 201.21 251.02">
  <defs>
    <style>
      .cls-1 {
        fill: #1c4aa6;
      }
    </style>
  </defs>
  <g id="Layer_1-2" data-name="Layer 1">
    <g>
      <path class="cls-1" d="M154.78,115.64c4.56,3.22,5.71,8.93,6.44,14.12,6.47-3.6,14.35-5.28,21.65-3.46,10.5,2.62,17.37,12.61,18.21,23.24,2.17,27.41-22.65,51.47-48.92,53.58-3.53.28-6.98-.42-10.49-.21l-8.28,10.54-9.79,8.57.17.78c5.62,3.33,11.59,7.43,7.45,14.75-5.74,10.15-37.11,13.02-47.98,13.4-13.62.47-38.12-1.7-49.63-9.25-5.26-3.45-6.43-9.82-1.95-14.49l7.43-4.27c-4.68-4.14-9.72-8-13.93-12.65C6.36,189.53-4.64,153.51,1.9,125.95c3.37-14.18,31.67-18.73,44-19.91,27.35-2.61,55.26-2.52,82.53,1.93,7.25,1.18,20.45,3.5,26.35,7.67ZM70.66,111.19c-15.09.72-43.67,2.59-56.42,10.34-8.3,5.04.1,9.89,5.8,11.02,2.73-1.34,5.25-3.26,8.07-4.43,7.79-3.22,16.99-4.81,25.38-5.63,24.9-2.43,54.73-1.9,78.62,5.85,3.94,1.28,3.74,3.09,8.8,1.83,2.79-.69,14.07-4.74,9.23-8.78-4.44-3.7-17.14-5.86-22.97-6.77-17.73-2.77-38.56-4.28-56.5-3.43ZM74.52,128.18c-8.78-.11-17.64.67-26.32,2-3.17.49-13.91,2.27-16.06,3.87-.37.28-.75.55-.64,1.09,3.12.25,6.22,1.02,9.34,1.26.88.07,5.67.31,6.2.14.82-.26,2.3-1.54,3.38-1.94,7.38-2.69,15.15-2.81,22.21-5,.71-.22,1.97-.46,1.89-1.43ZM124.08,213.81c13.09-10.87,22.93-32.68,26.79-48.98,2.67-11.28,3.68-22.84,3.38-34.43-2.89,2.6-6.31,3.66-9.59,5.44-38.31,11.11-82.74,13.04-121.78,4.59-5.23-1.13-10.63-3.97-15.44-6.23-2.71,24.57,6.13,53.14,22.47,71.66,4.52,5.13,17.67,13.72,19.62,18.67,1.02,2.59-.16,4.31,2.72,5.82,8.92,4.68,27.17,2.02,37.61,3.2,3.26.37,2.35,2.11.06,3.22-6.54,3.18-28.36,1.75-35.66-.22-4.01-1.08-9.58-2.78-9.65-7.76-2.66.36-9.67,1.17-8.97,5.15.32,1.82,4.1,3.5,5.65,4.19,19.18,8.44,59.69,7.68,79.01-.71,6.03-2.62,6.28-6.62.17-9.17-2.37-.99-8.67-1.6-8.59-4.67.18-1.02,1.23-2.04,2.02-2.68,3.05-2.44,7.15-4.57,10.17-7.08ZM186.1,177.75c7.45-9.95,12.35-29.85,3.59-40.23-5.51-6.53-18.21-6.37-25.28-2.5-4.78,2.62-3.7,6.03-3.83,10.88,5.34-3.96,13.4-7.98,19.69-3.17,13.29,10.16,1.99,29.49-8.55,37.03-6.4,4.58-13.72,5.97-21.38,6.93l-4.64,9.67,3.64.51c13.22-.26,28.88-8.61,36.75-19.12ZM158.5,178.94c11.09-3.48,22.53-12.7,21.03-25.56-1.38-11.8-17.62-4.18-20.66,2.37-.73,1.57-1.3,8.02-1.86,10.47-.98,4.31-2.35,9-4.01,13.07-.01.81,4.46.31,5.12.13.26-.07.3-.44.38-.47Z"/>
      <path class="cls-1" d="M97.49,68.57c-2.3,5.17-7.19,11.42-7.77,17.06-.25,2.42.59,5.3-1.15,7.4-1.94,2.34-4.19.87-5.11-1.46-4.84-12.37,13.64-24.62,8.55-41.15-3.01-9.8-11.16-13.52-11.81-25.21-.49-8.81,4.99-19.85,12.51-24.53.94-.58,2.28-.92,3.32-.47,3.33,3.18-.78,4.77-2.53,6.95-3.19,3.99-6.24,11.67-6.02,16.78.39,9.04,7.17,14.27,10.41,21.86s3.07,14.95-.41,22.76Z"/>
      <path class="cls-1" d="M67.37,53.39c4.14,7.24,4.45,14.76,1.69,22.66-1.89,5.41-5.52,8.76-5.63,15.27-.03,1.79,1.24,3.21-.63,4.41-3.04,1.96-5.08-2.17-5.36-4.73-1.05-9.8,7.63-17.44,5.93-28.07-2.42-15.09-18.67-17.21-15.38-35.79.78-4.4,6.17-14.52,11.2-14.47s-.35,6.24-1.17,7.73c-8.92,16.31,2.42,20.87,9.35,33Z"/>
      <path class="cls-1" d="M119.25,77.35c1.61-2.72,3.35-4.09,4.1-7.76,2.69-13.31-14.4-20.06-7.42-36.53,1.12-2.65,5.77-9.99,8.51-10.79,2.12-.62,3.64,1.13,3.19,3.18-.48,2.21-3.87,6.54-4.83,9.42-5.31,16.03,15.94,21.49,5.37,41.44-1.82,3.43-4.74,6.45-6.45,10-1.3,2.68-1.71,5.31-2.72,8.04-1.51,1.08-2.69,1.41-4.14,0-3.75-3.66,2.27-13.41,4.4-16.99Z"/>
      <path class="cls-1" d="M144.33,152.3c.4-.08.99.25,1.38.4.99,3.02.56,6.32-.09,9.4-2.71,12.93-12.13,34.61-22.71,42.78-.89.69-2.34,1.52-3.46.97-3.75-1.77,4.24-8.62,5.51-10.31,5.24-7,11.06-18.41,13.8-26.7,1.37-4.15,2.27-11.35,3.87-14.79.2-.43,1.32-1.68,1.7-1.75Z"/>
    </g>
  </g>
</svg>