<?xml version="1.0" encoding="UTF-8"?>
<svg id="Layer_2" data-name="Layer 2" xmlns="http://www.w3.org/2000/svg" xmlns:xlink="http://www.w3.org/1999/xlink" viewBox="0 0 781.12 161.02">
  <defs>
    <style>
      .cls-1 {
        clip-path: url(#clippath-1);
      }

      .cls-2 {
        fill: #234ca1;
      }

      .cls-3 {
        clip-path: url(#clippath);
      }
    </style>
    <clipPath id="clippath">
      <path class="cls-2" d="M731.44,113.78c-4.11-4.11-9.03-6.16-14.58-6.16-8.83,0-14.16,5.55-14.16,14.79s5.54,14.58,13.75,14.58c6.16,0,11.29-2.88,14.99-8.22v-14.99ZM757.51,161.02c-12.32,0-20.32-5.75-23.81-15.61-6.98,10.27-17.65,15.61-30.59,15.61-21.56,0-35.92-14.79-35.92-36.35s15.4-36.76,38.8-36.76c9.03,0,17.24,2.06,25.45,6.98v-4.52c0-13.56-6.98-20.13-19.5-20.13-9.24,0-17.04,3.7-26.07,10.68l-14.57-23c14.78-10.68,27.71-16.02,44.75-16.02,30.59,0,50.09,17.66,50.09,47.24v33.27c0,5.75,2.26,8.01,5.54,8.01,1.03,0,2.46-.41,3.9-.82l5.54,25.67c-8.42,4.11-17.24,5.75-23.61,5.75ZM617.29,80.92c-4.93-6.78-10.88-10.47-17.86-10.47-11.5,0-18.06,10.47-18.06,31.01s6.36,31.01,17.86,31.01c6.98,0,13.14-3.7,18.06-10.68v-40.87ZM643.78,161.02c-13.76,0-21.97-6.37-25.05-17.25-7.18,11.5-17.65,17.25-31.2,17.25-25.87,0-41.47-21.36-41.47-59.56s14.37-59.56,40.23-59.56c13.14,0,23.4,5.14,31,14.99V0h34.69v124.05c0,5.75,2.26,8.01,5.54,8.01,1.23,0,2.67-.41,4.11-1.03l5.54,24.44c-8.21,4.11-16.63,5.54-23.4,5.54ZM421.04,68.18c-10.06,0-18.27,6.57-20.53,22.8h40.03c-1.64-15.61-8.83-22.8-19.5-22.8ZM472.16,107.82h-71.85c1.64,18.07,9.85,24.85,20.94,24.85,10.27,0,16.63-5.75,19.71-15.2l31.2,7.39c-8,21.77-26.48,36.15-52.55,36.15-32.85,0-54.81-22.8-54.81-59.56s22.58-59.56,56.04-59.56,51.73,21.36,51.73,59.36c0,1.44-.21,4.93-.41,6.57ZM305.26,113.78c0,13.35,4.11,18.69,12.32,18.69s11.91-4.93,13.34-18.07l32.23,5.34c-4.11,26.91-19.3,41.28-45.78,41.28-29.77,0-46.8-17.25-46.8-49.09v-40.87h-62.41v42.72c0,13.35,4.11,18.69,12.32,18.69s11.91-4.93,13.14-18.07l32.23,5.34c-3.9,26.91-19.09,41.28-45.57,41.28-29.77,0-46.81-17.25-46.81-49.09v-40.87h-22.79v-25.06h22.79l2.88-35.94h31.82v35.94h62.41l2.87-35.94h31.82v35.94h54.61v25.06h-54.61v42.72ZM119.88,113.78c-4.1-4.11-9.03-6.16-14.57-6.16-8.83,0-14.17,5.55-14.17,14.79s5.54,14.58,13.76,14.58c6.16,0,11.29-2.88,14.98-8.22v-14.99ZM145.96,161.02c-12.32,0-20.32-5.75-23.81-15.61-6.98,10.27-17.65,15.61-30.59,15.61-21.56,0-35.93-14.79-35.93-36.35s15.4-36.76,38.8-36.76c9.03,0,17.24,2.06,25.45,6.98v-4.52c0-13.56-6.98-20.13-19.5-20.13-9.24,0-17.04,3.7-26.07,10.68l-14.58-23c14.78-10.68,27.71-16.02,44.75-16.02,30.59,0,50.09,17.66,50.09,47.24v33.27c0,5.75,2.26,8.01,5.54,8.01,1.03,0,2.46-.41,3.9-.82l5.54,25.67c-8.42,4.11-17.24,5.75-23.61,5.75ZM32.23,161.02c-20.12,0-32.23-12.73-32.23-36.15V0h34.69v123.43c0,6.16,3.08,9.04,7.8,9.04,2.26,0,4.93-.62,7.8-2.06l5.54,24.24c-6.36,4.11-15.19,6.37-23.61,6.37Z"/>
    </clipPath>
    <clipPath id="clippath-1">
      <rect class="cls-2" x="-134.34" y="-470.04" width="1076" height="1076"/>
    </clipPath>
  </defs>
  <g id="Layer_1-2" data-name="Layer 1">
    <g>
      <path class="cls-2" d="M731.44,113.78c-4.11-4.11-9.03-6.16-14.58-6.16-8.83,0-14.16,5.55-14.16,14.79s5.54,14.58,13.75,14.58c6.16,0,11.29-2.88,14.99-8.22v-14.99ZM757.51,161.02c-12.32,0-20.32-5.75-23.81-15.61-6.98,10.27-17.65,15.61-30.59,15.61-21.56,0-35.92-14.79-35.92-36.35s15.4-36.76,38.8-36.76c9.03,0,17.24,2.06,25.45,6.98v-4.52c0-13.56-6.98-20.13-19.5-20.13-9.24,0-17.04,3.7-26.07,10.68l-14.57-23c14.78-10.68,27.71-16.02,44.75-16.02,30.59,0,50.09,17.66,50.09,47.24v33.27c0,5.75,2.26,8.01,5.54,8.01,1.03,0,2.46-.41,3.9-.82l5.54,25.67c-8.42,4.11-17.24,5.75-23.61,5.75ZM617.29,80.92c-4.93-6.78-10.88-10.47-17.86-10.47-11.5,0-18.06,10.47-18.06,31.01s6.36,31.01,17.86,31.01c6.98,0,13.14-3.7,18.06-10.68v-40.87ZM643.78,161.02c-13.76,0-21.97-6.37-25.05-17.25-7.18,11.5-17.65,17.25-31.2,17.25-25.87,0-41.47-21.36-41.47-59.56s14.37-59.56,40.23-59.56c13.14,0,23.4,5.14,31,14.99V0h34.69v124.05c0,5.75,2.26,8.01,5.54,8.01,1.23,0,2.67-.41,4.11-1.03l5.54,24.44c-8.21,4.11-16.63,5.54-23.4,5.54ZM421.04,68.18c-10.06,0-18.27,6.57-20.53,22.8h40.03c-1.64-15.61-8.83-22.8-19.5-22.8ZM472.16,107.82h-71.85c1.64,18.07,9.85,24.85,20.94,24.85,10.27,0,16.63-5.75,19.71-15.2l31.2,7.39c-8,21.77-26.48,36.15-52.55,36.15-32.85,0-54.81-22.8-54.81-59.56s22.58-59.56,56.04-59.56,51.73,21.36,51.73,59.36c0,1.44-.21,4.93-.41,6.57ZM305.26,113.78c0,13.35,4.11,18.69,12.32,18.69s11.91-4.93,13.34-18.07l32.23,5.34c-4.11,26.91-19.3,41.28-45.78,41.28-29.77,0-46.8-17.25-46.8-49.09v-40.87h-62.41v42.72c0,13.35,4.11,18.69,12.32,18.69s11.91-4.93,13.14-18.07l32.23,5.34c-3.9,26.91-19.09,41.28-45.57,41.28-29.77,0-46.81-17.25-46.81-49.09v-40.87h-22.79v-25.06h22.79l2.88-35.94h31.82v35.94h62.41l2.87-35.94h31.82v35.94h54.61v25.06h-54.61v42.72ZM119.88,113.78c-4.1-4.11-9.03-6.16-14.57-6.16-8.83,0-14.17,5.55-14.17,14.79s5.54,14.58,13.76,14.58c6.16,0,11.29-2.88,14.98-8.22v-14.99ZM145.96,161.02c-12.32,0-20.32-5.75-23.81-15.61-6.98,10.27-17.65,15.61-30.59,15.61-21.56,0-35.93-14.79-35.93-36.35s15.4-36.76,38.8-36.76c9.03,0,17.24,2.06,25.45,6.98v-4.52c0-13.56-6.98-20.13-19.5-20.13-9.24,0-17.04,3.7-26.07,10.68l-14.58-23c14.78-10.68,27.71-16.02,44.75-16.02,30.59,0,50.09,17.66,50.09,47.24v33.27c0,5.75,2.26,8.01,5.54,8.01,1.03,0,2.46-.41,3.9-.82l5.54,25.67c-8.42,4.11-17.24,5.75-23.61,5.75ZM32.23,161.02c-20.12,0-32.23-12.73-32.23-36.15V0h34.69v123.43c0,6.16,3.08,9.04,7.8,9.04,2.26,0,4.93-.62,7.8-2.06l5.54,24.24c-6.36,4.11-15.19,6.37-23.61,6.37Z"/>
      <g class="cls-3">
        <g>
          <rect class="cls-2" x="-134.34" y="-470.04" width="1076" height="1076"/>
          <g class="cls-1">
            <rect class="cls-2" x="-14.34" y="-14.04" width="808" height="184"/>
          </g>
        </g>
      </g>
    </g>
  </g>
</svg>