<?xml version="1.0" encoding="UTF-8"?>
<svg id="Layer_2" data-name="Layer 2" xmlns="http://www.w3.org/2000/svg" viewBox="0 0 628.97 98.29">
  <defs>
    <style>
      .cls-1 {
        fill: #1c4aa6;
      }
    </style>
  </defs>
  <g id="Layer_1-2" data-name="Layer 1">
    <g>
      <path class="cls-1" d="M510.07.12c17.53-.98,50.47,3.82,51.67,25.97.56,10.35-15,39.12-21.62,47.78-9.05,11.83-30.11,36.06-43.75,17.89l-1.91-73.53c-.99-5.42-11.54-6.33-5.34-12.39,5.07-4.96,14.31-5.35,20.94-5.72ZM513.3,10.87c-2.31.2-7.84-.22-7.88,2.93l5.35,7.9c1.47,9.24-4.9,57.53-1.59,62.77.57.91,1.06,1.61,2.24,1.66,15.04-12.15,27.3-27.86,32.78-46.54,2.8-9.54,5.86-19.39-5.05-25.54-4.07-2.29-21.04-3.58-25.85-3.17Z"/>
      <path class="cls-1" d="M406.12,11.78c-.39,1.03-17.87,7.35-20.42,8.08-5.31,1.51-27.23,4.6-29.53,6.26-1.73,1.24-1.92,2.55-2.51,4.38-.7,2.16-2.84,14.6-2.92,16.82-.07,1.87.36,4.12,2.23,5.01,6.99.57,23.46-12.79,28.23-6.99.95,1.22,1.47,3.12,1.46,4.63-.08,7.93-26.2,13.63-32.69,15.84-3.14,32.28,23.41,14.82,38.5,15.67,12.28.69,7.27,9.9-3.02,12.84-16.72,4.77-42.69,1.57-50.84-16.11-1.67-3.62-1.36-8.6-4.25-11.9-2.38-2.73-9.49-3-10.37-8.17,4.22-4.39,10.96-.99,13.25-7.99.58-1.78,3.71-21.95,3.53-23.15-.44-2.88-3.95-5.2-5.03-7.95l.38-1.72c7.29-1.52,5.49-7.97,12.62-9.06s8.53,2.43,13.81,2.85c9.62.77,40.55-7.76,46.03-3.09,1.12.96,1.6,2.3,1.56,3.75Z"/>
      <path class="cls-1" d="M144.48,71.23c1,4.84,8.78,20.49.74,23.68-10.99,4.36-10.19-22.51-13.37-27.4-2.59-3.99-6.58-2.53-10.28-1.5-2.52.7-24.3,9.18-25.35,10.05-5.13,4.31-6.09,14.38-12.6,18.34-6.22.01-11.63-3.38-9.85-10.19,11.56-20.35,15.75-52.01,32.93-68.26,34.12-32.3,34.16,37.8,37.79,55.28ZM127.87,54.75c1.39-2.17-1.87-27.98-3.61-30.48-1.46-2.11-4.32-.88-5.96.49-3.27,2.73-17.54,29.49-17.2,33.05.08.81,1.71,2.78,2.52,2.95l24.25-6.01Z"/>
      <path class="cls-1" d="M606.91,63.06c-7.87,5.75-27.57,8.22-33.22,15.27-3.75,4.69-3.49,16.93-12.85,16.21-6.72-.52-7.41-5.26-6.28-10.78,1.81-8.84,19.39-52.88,24.25-60.38,5.59-8.61,19.12-22.04,29.9-13.43,9.77,7.8,11.21,40.91,13.97,53.63,1.45,6.68,11.58,25.99,2.65,29.66-11.74,4.83-8.7-28.36-18.43-30.19ZM607.86,51.54c-1.36-4.39-2.09-30.93-8.76-28.87-6.05,1.87-17.49,29.59-18.59,36.87l25.54-5.67,1.8-2.33Z"/>
      <path class="cls-1" d="M242.21,10.14c.13,1.19.39,2.43-.17,3.59-2.35,4.85-43.21,6.8-45.37,10.65l-1.65,61.12c.46,6.11-5.51,12.41-11.31,8.77-3.53-2.21-.11-19.96-.02-24.59.28-14.1-1.05-28.33,0-42.46-1.15-3.48-16.23,4.51-19.01,5.28-7.07,1.95-11.11,3.29-15.86-3.81.14-5.61,3.73-6.69,7.9-8.59,25.54-11.68,57.98-9.46,85.49-9.95Z"/>
      <path class="cls-1" d="M233.06,33.83c-3.88-2.79-2.69-6.22.76-8.75,13.65-10.02,48.86-14.73,65.83-15.67,3.38-.19,23.85-.77,24.36,1.34-.37,2.61-1.5,3.33-3.69,4.26-6.28,2.68-39.24,6.7-41.13,9.4l-.41,66.97c-2.57,6.15-11.84,7.19-12.31-.94-.48-8.22,1.15-19.31.84-28.33-.38-11-1.23-22.23-2.27-33.19l-1.73-1.58c-9.32,2.55-20.92,13.18-30.25,6.49Z"/>
      <path class="cls-1" d="M38.55,92.92c-10.61,5.35-28.07,6.1-35.34-5.12C-1.02,81.27-.02,37.57.44,27.39c.17-3.87-.1-14.47.77-17.24,1.85-5.85,11.56-6.74,15.47-2.2s-.84,39.33-.99,47.75c-.11,6.3-1.29,28.76,5.1,31.02,6.12,2.7,27.45-16.79,29.95-8.04,1.68,5.87-7.83,12.03-12.19,14.23Z"/>
      <path class="cls-1" d="M61.1,5.02c5.26-.69,9.67,6.52,10.08,11.16.45,5.04-1.93,34.41-9.23,32.91-4.45-5.48-2.43-16.17-2.8-23.57-.19-3.72-5.08-19.58,1.95-20.5Z"/>
    </g>
  </g>
</svg>