<?xml version="1.0" encoding="UTF-8"?>
<svg id="Layer_2" data-name="Layer 2" xmlns="http://www.w3.org/2000/svg" viewBox="0 0 214.33 294.19">
  <defs>
    <style>
      .cls-1 {
        fill: #1c4aa6;
      }
    </style>
  </defs>
  <g id="Layer_1-2" data-name="Layer 1">
    <g>
      <path class="cls-1" d="M150.47,29.9c45.57,29.83-2.47,55.2-15.42,83.79-7.49,16.53,6.42,12.02,14.77,4.38,17.79-16.3,18.12-33.62,26.69-53.09,4.02-9.13,8.45-1.41,12.65,3.7,7.55,9.19,18.01,25.38,16.05,37.63-2.94,18.3-24.72,24.02-36.06,34.79-7.32,6.96-6.27,13.34,4.92,10.17,10.27-2.92,16.87-11.75,24.59-18.36,1.45-2.01,7.63-12.26,8.97-12.98,3.74-2.01,4.01,3.14,4.57,5.68,9.55,43.52-13.23,102.86-67.37,78.96l-.78.89c12.41,22.26,27.97,42.8,46.07,60.66,2.48,2.45,12.88,10.63,13.82,12.28,2.18,3.8-.11,19.19-6.99,15.09-3.6-2.14-12.41-12.79-15.61-16.51-17.91-20.76-33.13-44.04-45.25-68.67-8.85,27.12-26.1,41.47-55.48,34.6-25.79-6.03-49.27-26.13-61.51-49.48-1.24-2.36-5-7.79-.51-8.29,1.98-.22,15.46,4.09,19.59,4.61,11.33,1.41,25.22.14,35.53-5.06,12.97-6.54,2.64-10.86-6.05-11.31-14.78-.77-43.44,7.04-55.22-2.1C1.22,162.58-.22,139.25.02,125.88c.06-3.02.03-14.13,2.98-15.23,1.38-.26,2.92,1.03,4.03,1.85,19.36,14.29,26.37,25.36,53.95,23.78,16.01-.92,15.05-10.88,2.56-16.21-16.51-7.04-55.03-2.4-60.43-26.2-1.57-6.93,5.69-29.59,9.58-35.71.76-1.2,1.87-3.1,3.43-3.25.98-.08,1.39.53,1.98,1.14,3.37,3.51,7.34,12.3,11.29,17.1,5.16,6.26,12.6,12.6,20.92,13.67,4.16.53,11.19-.09,8.79-6.12-1.84-4.63-21.98-13.75-27.55-19.09-18.24-17.45-1.71-27.14,7.24-42.16,2-3.35,7.69-17.95,9.53-19.08,1.13-.7,2.17-.26,3.33-.09,6.88,1.03,15.49,5,23.32,6.24,10.39,1.64,28.66-.33,35.5,9.11,13.31,18.34-9.96,49.58-5.17,61.62,1.28,3.23,4,2.43,6.44,1.11,4.46-2.41,10.86-15.92,12.73-20.91,4.55-12.14,5.32-24.07,5-36.91.64-.8,1.42-.58,2.27-.5,3.31.29,15.37,7.67,18.71,9.86ZM70.84,55.94l-9.2-23.31,1.62-.93c7.13,12.15,12.5,25.32,18.2,38.2.79.49,7.43-15.45,7.87-16.72.86-2.49,2.84-13.65,3.29-14.23.4-.51,1.25-.56,1.81-.84,2.4,13.18-7.09,24.62-10.31,36.81l18.76,44.95c10.61-13.35,21.29-26.88,29.4-41.95,1.88-3.49,6.82-16.4,8.69-18.2.75-.72.86-.52,1.68-.06,1.57,2.03-6.14,17.46-7.61,20.26-7.58,14.38-20.26,27.05-27,39.94-3.54,6.78-1.34,8.51,1.43,15.29,3.05,7.48,6.9,15.74,10.28,23.17,4.02,8.86,8.21,17.75,12.77,26.34l46.56-14.03c.87.84-3.41,3.91-4.04,4.34-12.14,8.12-28.07,6.09-40.53,13.53,1.43,7.57,7.32,10.2,13.8,12.72,50.14,19.5,67.02-34.68,59.28-73.34-8.94,11.04-23.99,29.69-39.78,28.41-10.42-.85-9.14-10.09-3.74-16.18,10.4-11.75,35.4-17.96,36.78-36.11.95-12.51-11.94-29.29-20.25-38.07-2.9,9.69-5.3,19.57-9.62,28.76-5.32,11.32-19.59,33.8-33.06,34.89-11.39.92-10.14-11.26-6.68-18.37,7.72-15.85,40-43.11,32.91-61.81-2.71-7.16-22.34-21.45-29.53-23.79-.57-.18-.79-.44-1.42,0,2.23,15.14-6.17,46.34-18.41,55.67-8.41,6.41-14.52.3-14.37-9.08.22-13.85,19.63-45.77,3.18-56.65-5.72-3.78-32.21-4.98-41.93-7.43-1.98-.5-10.19-3.94-11.37-2.86-.61.55-5.55,12.57-6.91,14.93-8.89,15.48-25.85,24.43-5.85,40.72,7.5,6.1,24.69,10.82,26.45,21.1.54,3.15-1.68,6.45-4.43,7.84-15.24,7.7-37.84-15.34-42.74-28.51-1.01.19-1.26.7-1.72,1.49-2.64,4.49-8.64,24.74-7.47,29.71,4.58,19.44,39.07,17.31,54.13,22.26,7.16,2.35,17.48,8.11,15.31,17.23-2.96,12.41-27.95,8.91-36.99,6.51-13.25-3.52-25.21-11.6-34.28-21.77-1.59-.55-1.33,9.2-1.34,10.19-.08,11.13,1.6,31.65,9.59,39.7,12.18,12.28,56.86-5.63,68.05,7.21,10.18,11.67-16.66,18.79-24.16,20.07-11.72,1.99-23.35-.27-34.72-2.92,15.38,35,81.02,75.36,104.64,26.5,1.96-4.05,4.99-14.14,4.36-18.45s-4.54-9.72-6.42-13.83c-6.59-.78-11.14,5.46-16.93,5.72-1.66-2.46,12.47-9.92,14.94-9.57-3.26-7.63-6.31-16.22-9.9-23.65-3.1-6.41-7.89-6.56-14.41-7.01-.56,2.48,1.03,4.19-.65,6.61-5.24,7.56-21.38,2.7-16.5-5.17,4.01-6.46,19.11-6.33,25.73-4.33l.78-1.2-17.59-41.63c-2.94-3.77-19.23-3.75-19.91-4.75-1.95-2.89,8.32-2.21,9.48-2.15,1.05.06,8.1,1.55,8.26,1.11-2.04-4.96-3.84-10.04-5.89-14.99-3.38-8.16-7.15-18.84-13.78-24.5-1.86-1.58-10.23-6.09-10.69-7.24-.59-1.47,1.18-1.22,2.13-1.14,3.41.32,6.76,3.65,10.02,4.57ZM95.68,154.98c-1.1-5.18-7.7-4.04-10.4-.85-.79,3.99,8.85,3.68,10.4.85ZM137.69,200.88c-3.06-1.17,1.08,5.76,1.68,6.92,14.82,28.39,33.77,55.25,55.92,78.3l1.45.41,1.83-7c-20.48-17.76-37.85-38.96-51.94-62.17-1.46-2.41-8.06-16.11-8.94-16.45ZM201.61,282.31c-1.14-.52-2.77,6.5-1.59,7.43,1.26-.71,2.25-7.14,1.59-7.43Z"/>
      <path class="cls-1" d="M94.87,207.91c-4.23,6.82-24.11,21.82-30.93,13.42-7.26-8.95,14.89-21.87,21.46-24.22,9.67-3.46,15.15,1.64,9.47,10.8ZM92.48,200.08c-6.58-.22-23.64,9.83-25.78,15.75-2.87,7.93,11.65,1.47,14.42-.25,2.52-1.57,15.7-12.25,11.36-15.5Z"/>
      <path class="cls-1" d="M12.95,137.79c.69-1.67,9.41,4.62,10.89,5.35,16.09,7.91,25.76,5.73,41.95,8.3,2.72.43,5.83,1.56,1.21,2.89-6.42,1.85-21.86-.09-28.54-1.76-8.88-2.22-20.62-6.78-25.51-14.78Z"/>
      <path class="cls-1" d="M133.37,144.29c12.59-7.38,16.91,5.21,7.25,13.72-14.69,12.94-20.84-5.75-7.25-13.72ZM136.21,147.15c-6.34,3.45-10.8,15.51-.49,9.54,6.48-3.75,9.71-14.56.49-9.54Z"/>
      <path class="cls-1" d="M195.47,101.48c1.52,7.17-8.1,15.88-13.42,20-2.34,1.81-13.89,9.94-15.88,10.59-4.58,1.5.04-3.43,1.09-4.39,5.5-5.01,12.66-8.63,18.24-14.05,4.01-3.9,6.16-8.29,9.97-12.14Z"/>
      <path class="cls-1" d="M45.41,107.95c-1.15,2.52-19.53-3.58-22.07-4.89-4.56-2.35-10.45-6.71-11.74-11.82,1.4-1.78,4.85,2.97,6.21,3.96,4.12,2.99,9.3,5.16,14.02,7.07,1.52.61,14.42,3.87,13.59,5.69Z"/>
      <path class="cls-1" d="M203.7,166.88c.19,13.23-10.57,25.71-22.39,30.96-.22-.62-.61-.92-.29-1.63.73-1.59,9.66-8.74,11.64-11.14s4.33-6.75,5.9-9.64c.79-1.45,3.22-9.31,5.13-8.55Z"/>
      <path class="cls-1" d="M33.94,44.41c2.32,4.09,4.77,7.62,8.05,10.98,1.96,2,9.49,7.05,10.24,8.3.55.91.84,1.37.18,2.35-7.07-3-17.82-10.08-19.87-17.97-.4-1.52-.59-3.27,1.39-3.66Z"/>
      <path class="cls-1" d="M78.46,233.34l28.71-1.97c-2.12,3.87-8.99,4.65-13.17,5.06-4.69.46-11.95.19-15.54-3.09Z"/>
    </g>
  </g>
</svg>