<svg width="1200" height="630" viewBox="0 0 1200 630" xmlns="http://www.w3.org/2000/svg">
  <defs>
    <style>
      .bg { fill: #F5F1E8; }
      .blue { fill: #1c4aa6; }
      .text-large { font-family: system-ui, -apple-system, sans-serif; font-size: 72px; font-weight: 700; fill: #1c4aa6; }
      .text-small { font-family: system-ui, -apple-system, sans-serif; font-size: 32px; font-weight: 400; fill: #1c4aa6; }
    </style>
  </defs>

  <!-- Background -->
  <rect class="bg" width="1200" height="630"/>

  <!-- Mascot Circle Logo (centered, scaled) -->
  <g transform="translate(300, 115) scale(0.6)">
    <g>
      <path class="blue" d="M335.56,26c8.26,5.15,21.64,17.84,15.12,28.25-3.05,4.87-19.28,12.93-25.04,14.74-7.88,2.47-25.15,6.72-25.53-5.86l22.6-33.92c1.28-2.77-3.21-6.55,1.54-7.32,3.88-.63,8.19,2.15,11.31,4.09ZM333.59,31.9c-1.11-.65-3.48-2.6-4.5-1.19l-.1,5.29c-2.28,4.65-20.58,24.5-20.75,27.93-.03.59-.04,1.07.48,1.46,10.69-.7,21.26-3.91,29.71-10.62,4.31-3.43,8.84-6.91,5.86-13.18-1.11-2.34-8.38-8.34-10.7-9.69Z"/>
      <path class="blue" d="M248.76,9.06c-.33.51-10.54,1.9-12,2-3.05.2-15.29-.68-16.73-.05-1.08.47-1.34,1.16-1.87,2.08-.63,1.09-3.24,7.58-3.54,8.77-.26,1.01-.28,2.27.63,2.97,3.72,1.12,14.2-4.2,16.11-.5.37.77.43,1.86.25,2.68-.97,4.28-15.78,4.33-19.56,4.77-5.46,17.12,10.96,10.75,19.03,12.97,6.57,1.8,2.79,6.21-3.13,6.61-9.62.64-23.31-4.12-25.67-14.65-.48-2.15.26-4.82-.92-6.94-.97-1.76-4.79-2.73-4.66-5.63,2.8-1.89,6.05.74,8.11-2.79.52-.9,4.56-11.46,4.61-12.13.1-1.61-1.53-3.27-1.8-4.89l.41-.89c4.13.03,3.9-3.68,7.89-3.44s4.34,2.31,7.15,3.15c5.12,1.54,22.87.52,25.3,3.69.5.65.6,1.43.41,2.21Z"/>
      <path class="blue" d="M81.5,60.96c1.57,2.24,8.96,8.5,5.56,11.89-4.64,4.63-10.12-9.23-12.81-11.02-2.19-1.46-3.9.15-5.56,1.49-1.13.91-10.36,10-10.7,10.67-1.67,3.32.05,8.65-2.39,12.1-3.16,1.37-6.66.83-7.25-3.03,1.43-12.89-3.38-29.92,1.8-41.96,10.29-23.92,25.67,11.76,31.34,19.86ZM69.44,56.21c.23-1.41-7.08-13.83-8.51-14.72-1.21-.75-2.39.5-2.93,1.56-1.07,2.11-2.47,18.85-1.52,20.59.22.39,1.48,1.04,1.93.95l11.03-8.37Z"/>
      <path class="blue" d="M377.4,86.83c-5.4-.24-14.78-5.99-19.66-4.89-3.25.73-7.37,6.12-11.17,2.57-2.73-2.55-1.39-4.84,1.01-6.84,3.84-3.2,26.69-16.17,31.39-17.73,5.4-1.79,15.9-2.92,17.59,4.54,1.53,6.76-9.31,21.58-12.52,28.04-1.69,3.39-3.98,15.26-9.12,13.75-6.75-1.98,6.05-15.28,2.48-19.44ZM381.8,82.18c.93-2.37,9.8-14.11,6.2-15.52-3.26-1.29-17.81,6.75-20.8,9.52l13.01,6.39,1.59-.38Z"/>
      <path class="blue" d="M132.97,6.62c.21.63.5,1.27.33,1.96-.7,2.9-22.59,8.79-23.31,11.13l6.33,33.28c.97,3.25-1.52,7.37-5.08,6.08-2.17-.78-2.42-10.79-2.92-13.31-1.51-7.67-3.92-15.21-5.02-22.99-1.03-1.75-8.25,4.36-9.67,5.1-3.59,1.89-5.62,3.09-9.04-.19-.59-3.05,1.23-4.06,3.26-5.59,12.44-9.34,30.27-11.97,45.11-15.49Z"/>
      <path class="blue" d="M140.43,16.75c-2.15-1.54-1.49-3.45.42-4.85,7.56-5.55,27.07-8.16,36.48-8.68,1.87-.1,13.22-.43,13.5.74-.21,1.45-.83,1.84-2.04,2.36-3.48,1.48-21.74,3.71-22.79,5.21l-.23,37.11c-1.42,3.41-6.56,3.98-6.82-.52-.27-4.56.64-10.7.47-15.7-.21-6.1-.68-12.32-1.26-18.39l-.96-.87c-5.17,1.41-11.59,7.3-16.76,3.59Z"/>
      <path class="blue" d="M36.94,102.95c-4.26,5.02-13.01,9.17-19.14,5.01-3.56-2.42-12.49-24.94-14.45-30.23-.75-2.01-3.17-7.36-3.32-8.96-.32-3.38,4.45-5.93,7.42-4.46s8.06,20.25,9.8,24.58c1.3,3.24,5.55,14.96,9.3,14.73,3.71.06,10.39-14.49,13.55-10.57,2.12,2.63-1.4,7.83-3.15,9.89Z"/>
      <path class="blue" d="M296.19,392.46c.21.32-.43,2-.8,2.35-3.06,2.9-21.84,1.06-26.17,4.14l-2.71,11.19c2.97,1.61,16.05-5.15,15.61.95-.31,4.34-13.45,5.58-16.88,5.67-3.96,5.29-.67,10.81,5.43,11.63,4.14.56,15.23-3.33,14.23,3.57-8.18,5.38-24.51.46-28.3-8.44-1.02-2.4-1.09-5.67-1.92-7.55-.77-1.74-4.91-3.37-4.58-4.88,1.46-1.84,3.88-.37,5.67-1.28,1.66-.85,7.31-15.14,3.15-16.41l.63-1.28c7.17-7.47,10.21-1.84,18.1-1.02,6.17.65,12.65-1.03,18.54,1.36Z"/>
      <path class="blue" d="M205.79,432.78c-8.91,1.84-3.21-14.22-9.11-15.08-1.05-.15-12.05,2.85-13.57,3.46-6.02,2.4-7.61,15.16-13.76,6.81-.39-1.16.04-2.08.37-3.15,1.59-5.17,13.8-28.42,17.52-31.74s12.08-6.73,14.68-.16c2.77,6.98,1.97,17.55,2.66,25.13.4,4.41,3.57,9.9,1.2,14.73ZM197.58,411.94c.27-2.22.59-16.07-2.68-15.65-5.39,4.06-8.3,11.25-11.13,17.31.23,1.16,5.31.45,6.58.27,2.18-.3,4.93-1.55,7.23-1.93Z"/>
      <path class="blue" d="M151.57,400.03c-2.16.55-4.67-.65-6.56-.56-8.94.44-13.1,14.06-10.95,21.53,3.98,13.78,23.87-2.6,29.34-7.62l3,1.17c3.06,5.99-13.01,16.39-17.98,17.39-24.74,4.95-29.69-30.65-10.69-39.11,6.42-2.86,14.69-1,13.83,7.2Z"/>
      <path class="blue" d="M230.75,399.03c-2.47,2.27-10.88,15.22-4.45,15.49,2.06.09,22.1-5.81,19.97.93-.64,2.02-20.64,5.64-23.59,7.24-1.99,3.09.81,13.07-4.96,11.29-4.4-1.36-3.75-5.91-3.62-9.63.42-12.42,2.88-24.54,13.74-31.87,4.48-3.02,17.16-8.52,20.65-1.92,3.18,6-7.23,2.47-10.45,3.43-.47.14-6.66,4.44-7.3,5.03Z"/>
      <g>
        <path class="blue" d="M178.24,131.46c2.45,1.67,6.9,5.39,8.76,7.66,1.87,2.29,6.49,12.44,8.47,12.66,4.27-1.29,8.69-2.09,13.15-2.37,16.95-1.05,41.3,2.3,55.75,11.59,2.94,1.89,5.38,5.75,7.41,8.56,8.26-3.29,15.87-3.62,24.05.26,16.96,8.05,26.27,33.48,19.55,50.99-5.59,14.57-22.87,25.57-37.29,30.01-4.5,14.42-12.15,27.9-23.46,38,2.54,8.1,3.09,4.65,7.06,2.1,7.32-4.69,22.85-12.8,31.29-11.16,8.9,1.72,4.94,13.72,1.57,18.97-6.7,10.43-31.15,25.59-43.66,24.6-11.82-.94-10.78-10.21-15.97-17.93-2.76-4.11-5.59-.55-9.75.6-2.08.57-5.25,1.63-6.83,2.01-2.06.49-11.01.24-12.43,1.81-1.8,1.98.66,3.9.87,5.04,1.63,8.71.23,14.58-8.46,17.83-8.91,3.33-27.86,2.34-37.31.43-3.82-.77-13.3-3.45-14.9-7.21-6.45-15.18,22.34-13.69,30.59-13.4,3.83.13,11.87,3.26,7.08-4.13l-13.25-3.45c-44.58-15.75-61.16-64.24-55.03-108.13.83-5.92,2.78-8.14,3.44-11.79.33-1.79-.23-3.99.06-5.84.69-4.41,4-7.94,5.37-12.06-1.26-1.13-7.19,3.48-8.48,4.04-4.05,1.77-12.08,4.11-13.5-1.96-2.49-10.67,11.54-22.74,21-24.69,1.43-1.35-7.2-2.45-7.87-2.69-7.05-2.49-8.8-11.17-2.9-15.7,8.19-6.28,24.6-7.43,34.53-6.6s22.53,6.09,31.08,11.92ZM171.34,135.4c-15.35-8.39-31.47-10.39-48.51-6.05l-6.78,3.63c-.2,2.53,17.22,3.11,19.37,3.21,2.69.13,15.82-.9,16.48,1.32-.03,1.7.21,4.68-.6,6.16-.08.14-2.32,2.13-2.47,2.18-3.19,1.03-9.23,1.24-12.83,2.17-10.13,2.6-23.54,6.72-28.79,16.4.34,4.31,14.03-4.89,14.86-5.28,7.34-3.46,20.49-9.39,28.62-8.25,4.76.67,4.29,6.98,2.38,10.21-.5.85-1.54.82-2.03,1.95-.86,1.99-.57,5.6-1.56,7.78-2.71,6-13.63,1.67-14.22,5.93-.16,1.11,2.55,4.55-1.29,7.04-4.51-4.02-4.46-15.79,2.57-17.07,2.91-.53,6.06.36,8.98-.35.73-1.86,3.73-7.52.27-7.64-2.5-.08-19.02,4.96-19.39,7.2,5.8,6.13-3.8,10.32-3.28,15.91,1.06,11.45,27.01,22.66,36.81,25.13,27,6.81,56.79,3.73,81.87-7.7,4.07-1.85,8.12-4.5,12.08-6.61-.82-3.75-2.4-7.4-5.43-9.86-12.38-10.04-33.23-12.91-47.81-19-10.76-4.49-9.1-9.54-14.84-17.11-2.97-3.91-10.15-8.97-14.45-11.32ZM261.73,167.82c-12.37-7.99-37.13-11.92-51.64-10.55-.86.08-1.59-.14-2.18.76,14.94,6.77,39.32,9.09,47.51,25.18.85,1.67.78,4.38,2.36,6.04,2.62.57,10.85-10.8,10.9-13.62s-4.79-6.42-6.95-7.82ZM301.43,182.16c-4.1-3.69-5.65-5.31-11.36-6.57-5.33-1.17-9.62-.6-14.85.89.61,4.77.49,9.78,2.7,14.21,2.83.67,5.39-.13,8.37.96,2.13.79,6.46,5.23,6.97,7.28.25,1,1.01,7.02,1.11,8.28.27,3.47-3.76,11.7-6.44,14.15-.85.78-5.24,3.16-5.36,3.59.57,4.68-1.65,10.76-1.48,15.15.03.8.02,1.19.75,1.68,6.01-2.74,11.75-5.26,17.05-9.32,18.56-14.22,20.3-34.3,2.54-50.31ZM293.38,287.49h-8.6c-.13,0-.77,1.05-1.27,1.19-8.83,2.58-19.12,8.06-25.75,14.43-1.59.07-6.94-8.67-7.14-10.71-.7-.48-7.92,5.51-6.35-3.17.57-3.13,8.89-7.28,11.58-9.79,24.54-22.84,26.61-62.11,16.75-92.29-.16-.49-1.26-2.26-1.61-2.34-3.57,3.67-6.23,7.96-10.31,11.28-31.96,26.05-100.86,31.54-132.87,2.72-1.15-1.03-6-7.71-6.87-7.13-.16,1.67-1.65,2.55-1.94,4.2-3.92,21.98,1.51,52.15,13.34,71.12,18.62,29.88,59.67,41.4,92.83,31.12,2.6-.81,14.08-6.37,15.83-5.77.83,1.55,1.07,3.9.67,5.58-.57,2.42-2.57,2.13-2.75,2.39-1.33,1.91,5.21,13.02,7.51,14.2,1.1.56,5.11,1.45,6.38,1.46,8.41.04,30.19-12.69,35.8-19.24,1.15-1.34,6.21-7.79,4.75-9.26ZM287.29,200.25c-1.33-1.07-6.68-3.7-7.6-1.37-.17.44.81,8.07.98,9.2.44,2.91.87,5.89,1.91,8.66,5.99-2.09,10.57-11.8,4.71-16.49ZM202.8,321.69c.47-.88.84-1.26.6-2.41l-4.11-9.2c-1.82-.17-10.66-2.35-10.92.23,2.71,9.91.2,10.7-8.75,10.59-6.16-.07-12.43-1.03-18.63-.51-2.31.19-5.35.21-6.63,2.2,1.08,1.18,2.67,1.36,4.1,1.78,10.77,3.18,32.44,4.34,42.45-.92.17-.09,1.82-1.67,1.89-1.78Z"/>
        <path class="blue" d="M100.66,134.36c4.33,4.19-.41,16.47-6.55,17.02-10.09.91-12.72-9.23-7.56-16.45,3.12-4.37,10.44-4.12,14.11-.57ZM97.37,140.11c-1.74-.23-8.56-.81-8.24,2.22.29,2.75,9.04,1.05,8.24-2.22Z"/>
        <path class="blue" d="M264.9,228.06c-1.41,7.47-3.93,15.3-7.96,21.77-12.18,19.52-39.95,27.93-58.39,11.88-5.47-4.76-10.03-11.67-12.56-18.47-5.93.65-8.28,7.71-9.99,12.59l-1.9.11c-2.19-2.03-1.16-5.51-.21-8.12,2.47-6.77,9.97-14.77,17.31-15.85,1.65,3.64-1.31,7.09-.7,9.78.93,4.07,9.19,12.95,12.74,15.28,20.02,13.12,46.79.77,54.87-20.3,1.45-3.77,4.66-10.52-1.09-10.99l-.47-4.33c1.26-4.1,6.81-2.53,9.92-1.58,4.37,1.34,7.25,3.66,4.11,8.24l-5.67-.02Z"/>
        <path class="blue" d="M210.86,222.15c5.84,1.28,4.03,10.08,9.52,11.75,3.9-3.93,1.41-10.39,2.47-15.22.23-1.03,1.73-4.36,2.96-2.89,1.75,2.09,1.67,26.11-5.79,25.91-4.54-.21-11.55-15.08-9.17-19.54Z"/>
        <path class="blue" d="M131.14,212.94l2.2,17.21c1.18,2.63,7.47,12.3,7.58,14.36.03.57-1.25,2.21-.8,3.32l-.95.6c-1.44.25-3.26-2.47-3.92-3.59-4.51-7.71-7.72-17.78-7.38-26.78.08-2.01.44-6.96,3.27-5.12Z"/>
        <path class="blue" d="M240.32,215.51c.15-1.58.79-9.08,3.47-5.92,1.88,2.22.25,20.23-2.22,22.4-3.69,3.25-8.76-5.98-9.15-9.07-.19-1.54-.58-8.39,2.23-7.64.8.21,1.98,6.12,2.74,7.48.49.87,2.93,3.06,2.93.63s-.23-5.46,0-7.86Z"/>
        <path class="blue" d="M146.09,260.87c-1.62-.94-2.99-7.36-.35-9.26,5.95-4.27,6.52,12.84.35,9.26Z"/>
        <path class="blue" d="M204.79,182.52c2.21,2.37,3.25,6.02,2.08,9.11-1.96,1.45-4.73-3.23-6.04-4.15-1.42-.99-6.34-4.11-7.71-4.83-4.25-2.25-16.25-2.53-14.09-9.77.15-.5,1.69-2.14,2.1-2.17.48-.04,8.03,2.53,9.16,2.98,4.16,1.65,11.6,5.72,14.5,8.83Z"/>
        <path class="blue" d="M174.65,186.43c.24-.32,1.51-1.06,1.96-1.02,3.44,1.71,13.01,1.88,14.37,6.25.79,2.54.01,5.04-2.9,4.93-.6-.02-11.02-2.84-11.64-3.15-2.51-1.24-3.4-4.82-1.78-7.01Z"/>
      </g>
    </g>
  </g>

  <!-- Text on the right side -->
  <text x="600" y="280" class="text-large" text-anchor="middle">LATTE DA CAFE</text>
  <text x="600" y="360" class="text-small" text-anchor="middle">Brooklyn Coffee Shop</text>
</svg>
