<svg xmlns="http://www.w3.org/2000/svg" viewBox="0 0 400 100">
  <defs>
    <style>
      .logo-text { fill: #2d2d2d; }
    </style>
  </defs>

  <!-- l -->
  <path class="logo-text" d="M0 8 C0 3, 3 0, 8 0 L12 0 C17 0, 20 3, 20 8 L20 72 C20 77, 23 80, 28 80 L28 80 C31 80, 34 82, 34 86 L34 90 C34 94, 31 97, 27 97 C10 97, 0 87, 0 72 Z"/>

  <!-- a -->
  <path class="logo-text" d="M38 56 C38 40, 50 28, 68 28 C78 28, 86 32, 90 38 L90 38 C90 33, 93 30, 98 30 L98 30 C103 30, 106 33, 106 38 L106 88 C106 93, 103 96, 98 96 L98 96 C93 96, 90 93, 90 88 L90 84 C86 92, 78 98, 66 98 C50 98, 38 86, 38 70 Z M90 64 C90 54, 82 46, 70 46 C58 46, 54 54, 54 64 C54 74, 58 82, 70 82 C82 82, 90 74, 90 64 Z"/>

  <!-- tt (connected) -->
  <path class="logo-text" d="M116 8 C116 3, 119 0, 124 0 L128 0 C133 0, 136 3, 136 8 L136 30 L144 30 L144 8 C144 3, 147 0, 152 0 L156 0 C161 0, 164 3, 164 8 L164 30 L172 30 C177 30, 180 33, 180 38 C180 43, 177 46, 172 46 L164 46 L164 72 C164 77, 167 80, 172 80 C177 80, 180 83, 180 88 C180 93, 177 96, 172 96 C155 96, 144 86, 144 72 L144 46 L136 46 L136 72 C136 86, 125 96, 108 96 C103 96, 100 93, 100 88 C100 83, 103 80, 108 80 C113 80, 116 77, 116 72 Z"/>

  <!-- e -->
  <path class="logo-text" d="M186 62 C186 42, 200 28, 220 28 C240 28, 252 42, 252 60 C252 65, 249 68, 244 68 L204 68 C206 78, 214 84, 226 84 C234 84, 240 82, 244 78 C248 75, 252 75, 255 78 C258 82, 258 86, 254 90 C246 96, 236 100, 222 100 C198 100, 186 84, 186 62 Z M204 54 L234 54 C232 46, 226 42, 218 42 C210 42, 204 46, 204 54 Z"/>

  <!-- space + d -->
  <path class="logo-text" d="M288 8 C288 3, 291 0, 296 0 L300 0 C305 0, 308 3, 308 8 L308 38 C314 32, 322 28, 334 28 C352 28, 366 42, 366 62 C366 82, 352 98, 332 98 C320 98, 312 92, 308 84 L308 88 C308 93, 305 96, 300 96 C295 96, 292 93, 292 88 L288 8 Z M308 62 C308 74, 318 84, 330 84 C342 84, 350 74, 350 62 C350 50, 342 42, 330 42 C318 42, 308 50, 308 62 Z"/>

  <!-- a -->
  <path class="logo-text" d="M374 56 C374 40, 386 28, 404 28 C414 28, 422 32, 426 38 L426 38 C426 33, 429 30, 434 30 L434 30 C439 30, 442 33, 442 38 L442 88 C442 93, 439 96, 434 96 L434 96 C429 96, 426 93, 426 88 L426 84 C422 92, 414 98, 402 98 C386 98, 374 86, 374 70 Z M426 64 C426 54, 418 46, 406 46 C394 46, 390 54, 390 64 C390 74, 394 82, 406 82 C418 82, 426 74, 426 64 Z"/>
</svg>