<?xml version="1.0" encoding="UTF-8"?>
<svg id="Layer_2" data-name="Layer 2" xmlns="http://www.w3.org/2000/svg" viewBox="0 0 359.62 98.84">
  <defs>
    <style>
      .cls-1 {
        fill: #1c4aa6;
      }
    </style>
  </defs>
  <g id="Layer_1-2" data-name="Layer 1">
    <g>
      <path class="cls-1" d="M359.53,10.59c.45.68-.91,4.23-1.69,4.97-6.48,6.13-46.19,2.24-55.35,8.75l-5.74,23.66c6.28,3.4,33.93-10.9,33.01,2-.65,9.17-28.44,11.79-35.69,12-8.36,11.18-1.42,22.86,11.48,24.6,8.75,1.18,32.21-7.04,30.08,7.55-17.3,11.38-51.82.97-59.85-17.84-2.17-5.07-2.31-12-4.06-15.97-1.63-3.68-10.38-7.12-9.68-10.32,3.09-3.89,8.21-.78,11.99-2.71,3.51-1.79,15.45-32.01,6.66-34.7l1.34-2.71c15.17-15.8,21.58-3.9,38.27-2.15,13.05,1.37,26.75-2.18,39.21,2.88Z"/>
      <path class="cls-1" d="M168.39,95.85c-18.83,3.89-6.8-30.08-19.25-31.89-2.22-.32-25.47,6.03-28.7,7.32-12.74,5.08-16.1,32.06-29.08,14.41-.82-2.45.08-4.4.77-6.66,3.36-10.94,29.19-60.09,37.05-67.12s25.54-14.24,31.05-.34c5.85,14.76,4.17,37.11,5.63,53.13.85,9.33,7.54,20.92,2.53,31.16ZM151.03,51.78c.56-4.7,1.25-33.98-5.67-33.1-11.4,8.58-17.54,23.79-23.53,36.59.49,2.45,11.24.94,13.91.58,4.62-.63,10.42-3.28,15.29-4.08Z"/>
      <path class="cls-1" d="M53.73,26.6c-4.56,1.15-9.88-1.37-13.87-1.17-18.9.92-27.71,29.72-23.14,45.53,8.41,29.14,50.47-5.5,62.04-16.12l6.35,2.48c6.48,12.66-27.51,34.66-38.02,36.76C-5.23,104.55-15.69,29.26,24.48,11.37c13.57-6.05,31.06-2.11,29.25,15.23Z"/>
      <path class="cls-1" d="M221.16,24.48c-5.21,4.8-23.01,32.17-9.4,32.76,4.36.19,46.73-12.29,42.24,1.98-1.34,4.26-43.64,11.93-49.89,15.31-4.21,6.54,1.7,27.64-10.49,23.88-9.31-2.87-7.92-12.5-7.66-20.37.88-26.26,6.09-51.9,29.06-67.4,9.46-6.39,36.28-18.02,43.67-4.05,6.71,12.68-15.29,5.22-22.09,7.25-.99.3-14.08,9.39-15.44,10.64Z"/>
    </g>
  </g>
</svg>