<?xml version="1.0" encoding="UTF-8"?>
<svg id="Layer_2" data-name="Layer 2" xmlns="http://www.w3.org/2000/svg" viewBox="0 0 937.27 215.58">
  <defs>
    <style>
      .cls-1 {
        fill: #1c4aa6;
      }
    </style>
  </defs>
  <g id="Layer_1-2" data-name="Layer 1">
    <g>
      <path class="cls-1" d="M818.37,66.87c17.53-.98,50.47,3.82,51.67,25.97.56,10.35-15,39.12-21.62,47.78-9.05,11.83-30.11,36.06-43.75,17.89l-1.91-73.53c-.99-5.42-11.54-6.33-5.34-12.39,5.07-4.96,14.31-5.35,20.94-5.72ZM821.6,77.62c-2.31.2-7.84-.22-7.88,2.93l5.35,7.9c1.47,9.24-4.9,57.53-1.59,62.77.57.91,1.06,1.61,2.24,1.66,15.04-12.15,27.3-27.86,32.78-46.54,2.8-9.54,5.86-19.39-5.05-25.54-4.07-2.29-21.04-3.58-25.85-3.17Z"/>
      <path class="cls-1" d="M714.42,78.53c-.39,1.03-17.87,7.35-20.42,8.08-5.31,1.51-27.23,4.6-29.53,6.26-1.73,1.24-1.92,2.55-2.51,4.38-.7,2.16-2.84,14.6-2.92,16.82-.07,1.87.36,4.12,2.23,5.01,6.99.57,23.46-12.79,28.23-6.99.95,1.22,1.47,3.12,1.46,4.63-.08,7.93-26.2,13.63-32.69,15.84-3.14,32.28,23.41,14.82,38.5,15.67,12.28.69,7.27,9.9-3.02,12.84-16.72,4.77-42.69,1.57-50.84-16.11-1.67-3.62-1.36-8.6-4.25-11.9-2.38-2.73-9.49-3-10.37-8.17,4.22-4.39,10.96-.99,13.25-7.99.58-1.78,3.71-21.95,3.53-23.15-.44-2.88-3.95-5.2-5.03-7.95l.38-1.72c7.29-1.52,5.49-7.97,12.62-9.06s8.53,2.43,13.81,2.85c9.62.77,40.55-7.76,46.03-3.09,1.12.96,1.6,2.3,1.56,3.75Z"/>
      <path class="cls-1" d="M452.78,137.98c1,4.84,8.78,20.49.74,23.68-10.99,4.36-10.19-22.51-13.37-27.4-2.59-3.99-6.58-2.53-10.28-1.5-2.52.7-24.3,9.18-25.35,10.05-5.13,4.31-6.09,14.38-12.6,18.34-6.22.01-11.63-3.38-9.85-10.19,11.56-20.35,15.75-52.01,32.93-68.26,34.12-32.3,34.16,37.8,37.79,55.28ZM436.17,121.5c1.39-2.17-1.87-27.98-3.61-30.48-1.46-2.11-4.32-.88-5.96.49-3.27,2.73-17.54,29.49-17.2,33.05.08.81,1.71,2.78,2.52,2.95l24.25-6.01Z"/>
      <path class="cls-1" d="M915.21,129.81c-7.87,5.75-27.57,8.22-33.22,15.27-3.75,4.69-3.49,16.93-12.85,16.21-6.72-.52-7.41-5.26-6.28-10.78,1.81-8.84,19.39-52.88,24.25-60.38,5.59-8.61,19.12-22.04,29.9-13.43,9.77,7.8,11.21,40.91,13.97,53.63,1.45,6.68,11.58,25.99,2.65,29.66-11.74,4.83-8.7-28.36-18.43-30.19ZM916.16,118.29c-1.36-4.39-2.09-30.93-8.76-28.87-6.05,1.87-17.49,29.59-18.59,36.87l25.54-5.67,1.8-2.33Z"/>
      <path class="cls-1" d="M550.51,76.89c.13,1.19.39,2.43-.17,3.59-2.35,4.85-43.21,6.8-45.37,10.65l-1.65,61.12c.46,6.11-5.51,12.41-11.31,8.77-3.53-2.21-.11-19.96-.02-24.59.28-14.1-1.05-28.33,0-42.46-1.15-3.48-16.23,4.51-19.01,5.28-7.07,1.95-11.11,3.29-15.86-3.81.14-5.61,3.73-6.69,7.9-8.59,25.54-11.68,57.98-9.46,85.49-9.95Z"/>
      <path class="cls-1" d="M541.36,100.58c-3.88-2.79-2.69-6.22.76-8.75,13.65-10.02,48.86-14.73,65.83-15.67,3.38-.19,23.85-.77,24.36,1.34-.37,2.61-1.5,3.33-3.69,4.26-6.28,2.68-39.24,6.7-41.13,9.4l-.41,66.97c-2.57,6.15-11.84,7.19-12.31-.94-.48-8.22,1.15-19.31.84-28.33-.38-11-1.23-22.23-2.27-33.19l-1.73-1.58c-9.32,2.55-20.92,13.18-30.25,6.49Z"/>
      <path class="cls-1" d="M346.85,159.67c-10.61,5.35-28.07,6.1-35.34-5.12-4.23-6.52-3.23-50.23-2.77-60.41.17-3.87-.1-14.47.77-17.24,1.85-5.85,11.56-6.74,15.47-2.2s-.84,39.33-.99,47.75c-.11,6.3-1.29,28.76,5.1,31.02,6.12,2.7,27.45-16.79,29.95-8.04,1.68,5.87-7.83,12.03-12.19,14.23Z"/>
      <path class="cls-1" d="M369.39,71.77c5.26-.69,9.67,6.52,10.08,11.16.45,5.04-1.93,34.41-9.23,32.91-4.45-5.48-2.43-16.17-2.8-23.57-.19-3.72-5.08-19.58,1.95-20.5Z"/>
    </g>
    <g>
      <path class="cls-1" d="M94.27,12.16c2.45,1.67,6.9,5.39,8.76,7.66s6.49,12.44,8.47,12.66c4.27-1.29,8.69-2.09,13.15-2.37,16.95-1.05,41.3,2.3,55.75,11.59,2.94,1.89,5.38,5.75,7.41,8.56,8.26-3.29,15.87-3.62,24.05.26,16.96,8.05,26.27,33.48,19.55,50.99-5.59,14.57-22.87,25.57-37.29,30.01-4.5,14.42-12.15,27.9-23.46,38,2.54,8.1,3.09,4.65,7.06,2.1,7.32-4.69,22.85-12.8,31.29-11.16,8.9,1.72,4.94,13.72,1.57,18.97-6.7,10.43-31.15,25.59-43.66,24.6-11.82-.94-10.78-10.21-15.97-17.93-2.76-4.11-5.59-.55-9.75.6-2.08.57-5.25,1.63-6.83,2.01-2.06.49-11.01.24-12.43,1.81-1.8,1.98.66,3.9.87,5.04,1.63,8.71.23,14.58-8.46,17.83-8.91,3.33-27.86,2.34-37.31.43-3.82-.77-13.3-3.45-14.9-7.21-6.45-15.18,22.34-13.69,30.59-13.4,3.83.13,11.87,3.26,7.08-4.13l-13.25-3.45c-44.58-15.75-61.16-64.24-55.03-108.13.83-5.92,2.78-8.14,3.44-11.79.33-1.79-.23-3.99.06-5.84.69-4.41,4-7.94,5.37-12.06-1.26-1.13-7.19,3.48-8.48,4.04-4.05,1.77-12.08,4.11-13.5-1.96-2.49-10.67,11.54-22.74,21-24.69,1.43-1.35-7.2-2.45-7.87-2.69-7.05-2.49-8.8-11.17-2.9-15.7C36.85.56,53.26-.59,63.19.24s22.53,6.09,31.08,11.92ZM87.36,16.1c-15.35-8.39-31.47-10.39-48.51-6.05l-6.78,3.63c-.2,2.53,17.22,3.11,19.37,3.21,2.69.13,15.82-.9,16.48,1.32-.03,1.7.21,4.68-.6,6.16-.08.14-2.32,2.13-2.47,2.18-3.19,1.03-9.23,1.24-12.83,2.17-10.13,2.6-23.54,6.72-28.79,16.4.34,4.31,14.03-4.89,14.86-5.28,7.34-3.46,20.49-9.39,28.62-8.25,4.76.67,4.29,6.98,2.38,10.21-.5.85-1.54.82-2.03,1.95-.86,1.99-.57,5.6-1.56,7.78-2.71,6-13.63,1.67-14.22,5.93-.16,1.11,2.55,4.55-1.29,7.04-4.51-4.02-4.46-15.79,2.57-17.07,2.91-.53,6.06.36,8.98-.35.73-1.86,3.73-7.52.27-7.64-2.5-.08-19.02,4.96-19.39,7.2,5.8,6.13-3.8,10.32-3.28,15.91,1.06,11.45,27.01,22.66,36.81,25.13,27,6.81,56.79,3.73,81.87-7.7,4.07-1.85,8.12-4.5,12.08-6.61-.82-3.75-2.4-7.4-5.43-9.86-12.38-10.04-33.23-12.91-47.81-19-10.76-4.49-9.1-9.54-14.84-17.11-2.97-3.91-10.15-8.97-14.45-11.32ZM177.76,48.52c-12.37-7.99-37.13-11.92-51.64-10.55-.86.08-1.59-.14-2.18.76,14.94,6.77,39.32,9.09,47.51,25.18.85,1.67.78,4.38,2.36,6.04,2.62.57,10.85-10.8,10.9-13.62s-4.79-6.42-6.95-7.82ZM217.45,62.86c-4.1-3.69-5.65-5.31-11.36-6.57-5.33-1.17-9.62-.6-14.85.89.61,4.77.49,9.78,2.7,14.21,2.83.67,5.39-.13,8.37.96,2.13.79,6.46,5.23,6.97,7.28.25,1,1.01,7.02,1.11,8.28.27,3.47-3.76,11.7-6.44,14.15-.85.78-5.24,3.16-5.36,3.59.57,4.68-1.65,10.76-1.48,15.15.03.8.02,1.19.75,1.68,6.01-2.74,11.75-5.26,17.05-9.32,18.56-14.22,20.3-34.3,2.54-50.31ZM209.4,168.19h-8.6c-.13,0-.77,1.05-1.27,1.19-8.83,2.58-19.12,8.06-25.75,14.43-1.59.07-6.94-8.67-7.14-10.71-.7-.48-7.92,5.51-6.35-3.17.57-3.13,8.89-7.28,11.58-9.79,24.54-22.84,26.61-62.11,16.75-92.29-.16-.49-1.26-2.26-1.61-2.34-3.57,3.67-6.23,7.96-10.31,11.28-31.96,26.05-100.86,31.54-132.87,2.72-1.15-1.03-6-7.71-6.87-7.13-.16,1.67-1.65,2.55-1.94,4.2-3.92,21.98,1.51,52.15,13.34,71.12,18.62,29.88,59.67,41.4,92.83,31.12,2.6-.81,14.08-6.37,15.83-5.77.83,1.55,1.07,3.9.67,5.58-.57,2.42-2.57,2.13-2.75,2.39-1.33,1.91,5.21,13.02,7.51,14.2,1.1.56,5.11,1.45,6.38,1.46,8.41.04,30.19-12.69,35.8-19.24,1.15-1.34,6.21-7.79,4.75-9.26ZM203.32,80.95c-1.33-1.07-6.68-3.7-7.6-1.37-.17.44.81,8.07.98,9.2.44,2.91.87,5.89,1.91,8.66,5.99-2.09,10.57-11.8,4.71-16.49ZM118.83,202.39c.47-.88.84-1.26.6-2.41l-4.11-9.2c-1.82-.17-10.66-2.35-10.92.23,2.71,9.91.2,10.7-8.75,10.59-6.16-.07-12.43-1.03-18.63-.51-2.31.19-5.35.21-6.63,2.2,1.08,1.18,2.67,1.36,4.1,1.78,10.77,3.18,32.44,4.34,42.45-.92.17-.09,1.82-1.67,1.89-1.78Z"/>
      <path class="cls-1" d="M16.68,15.06c4.33,4.19-.41,16.47-6.55,17.02C.05,32.99-2.59,22.85,2.58,15.63c3.12-4.37,10.44-4.12,14.11-.57ZM13.39,20.81c-1.74-.23-8.56-.81-8.24,2.22.29,2.75,9.04,1.05,8.24-2.22Z"/>
      <path class="cls-1" d="M180.93,108.76c-1.41,7.47-3.93,15.3-7.96,21.77-12.18,19.52-39.95,27.93-58.39,11.88-5.47-4.76-10.03-11.67-12.56-18.47-5.93.65-8.28,7.71-9.99,12.59l-1.9.11c-2.19-2.03-1.16-5.51-.21-8.12,2.47-6.77,9.97-14.77,17.31-15.85,1.65,3.64-1.31,7.09-.7,9.78.93,4.07,9.19,12.95,12.74,15.28,20.02,13.12,46.79.77,54.87-20.3,1.45-3.77,4.66-10.52-1.09-10.99l-.47-4.33c1.26-4.1,6.81-2.53,9.92-1.58,4.37,1.34,7.25,3.66,4.11,8.24l-5.67-.02Z"/>
      <path class="cls-1" d="M126.88,102.85c5.84,1.28,4.03,10.08,9.52,11.75,3.9-3.93,1.41-10.39,2.47-15.22.23-1.03,1.73-4.36,2.96-2.89,1.75,2.09,1.67,26.11-5.79,25.91-4.54-.21-11.55-15.08-9.17-19.54Z"/>
      <path class="cls-1" d="M47.17,93.64l2.2,17.21c1.18,2.63,7.47,12.3,7.58,14.36.03.57-1.25,2.21-.8,3.32l-.95.6c-1.44.25-3.26-2.47-3.92-3.59-4.51-7.71-7.72-17.78-7.38-26.78.08-2.01.44-6.96,3.27-5.12Z"/>
      <path class="cls-1" d="M156.35,96.21c.15-1.58.79-9.08,3.47-5.92,1.88,2.22.25,20.23-2.22,22.4-3.69,3.25-8.76-5.98-9.15-9.07-.19-1.54-.58-8.39,2.23-7.64.8.21,1.98,6.12,2.74,7.48.49.87,2.93,3.06,2.93.63s-.23-5.46,0-7.86Z"/>
      <path class="cls-1" d="M62.11,141.57c-1.62-.94-2.99-7.36-.35-9.26,5.95-4.27,6.52,12.84.35,9.26Z"/>
      <path class="cls-1" d="M120.81,63.22c2.21,2.37,3.25,6.02,2.08,9.11-1.96,1.45-4.73-3.23-6.04-4.15-1.42-.99-6.34-4.11-7.71-4.83-4.25-2.25-16.25-2.53-14.09-9.77.15-.5,1.69-2.14,2.1-2.17.48-.04,8.03,2.53,9.16,2.98,4.16,1.65,11.6,5.72,14.5,8.83Z"/>
      <path class="cls-1" d="M90.67,67.13c.24-.32,1.51-1.06,1.96-1.02,3.44,1.71,13.01,1.88,14.37,6.25.79,2.54.01,5.04-2.9,4.93-.6-.02-11.02-2.84-11.64-3.15-2.51-1.24-3.4-4.82-1.78-7.01Z"/>
    </g>
  </g>
</svg>