<?xml version="1.0" encoding="UTF-8"?>
<svg id="Layer_2" data-name="Layer 2" xmlns="http://www.w3.org/2000/svg" viewBox="0 0 365.08 354.12">
  <defs>
    <style>
      .cls-1 {
        fill: #1c4aa6;
      }
    </style>
  </defs>
  <g id="Layer_1-2" data-name="Layer 1">
    <g>
      <path class="cls-1" d="M301.06,216.46c-8.46,24.14-19.76,46.19-39.1,63.39l5.33,10.35c12.25-9.72,28.53-19.23,43.73-23.27,23-6.11,27.27,9.45,17.2,27.2-11.47,20.21-54.33,45.6-77.69,40.85-11.37-2.31-14.67-22.88-20.84-31.15-.71-.95-.9-1.56-2.32-1.6-2.45-.06-15.21,5.4-19.55,6.49-5.46,1.37-12.05,2.58-17.64,3.36-3.67.51-10.78-1.65-10.21,3.38.37,3.27,3.34,6.96,3.84,11.25,1.88,16.25-3.4,21.15-18.01,25-16.81,4.43-63.14,3.38-76.95-8.03-5.11-4.22-4.45-14.83,1.26-18.66,14.9-10,41.78-4.24,58.7-3.8l.06-9.39c-29.35-5.68-55.81-18.92-76.09-41.08-32.63-35.68-43.51-94.92-36.85-141.91,2.46-17.38,14.03-32.26,20.38-47.62,7.36-17.8-1.33-20.03-9.91-32.09s-5.97-21.91,7.73-27.1c35.4-13.42,73.8,18.05,102.44,34.97,25.73-5.21,48.39-6.17,74.43-1.47,21.09,3.81,45.77,10.11,58.49,28.59,27.15-5.81,49.57.55,64.13,24.79,30.02,49.99-2.9,93.5-52.55,107.56ZM251.5,105.5c-.71-.95-10.74-6.79-12.68-7.82-21.62-11.44-46.07-15.02-68.38-24.62-30.34-13.06-80.05-60.14-113.98-42.69-15.08,7.76.31,18.44,5.13,26.54,15.62,26.22-22.46,39.55,1.17,64.83,34.63,37.05,126.76,40.12,168.33,15.27,7.43-4.44,27.62-21.81,20.39-31.51ZM182.81,66.19c22.18,9.96,62.8,15.1,77.43,36.08,3.76,5.39,3.58,11.65,7.08,16.93,7.24-3.74,21.02-18.42,17.96-26.94-4.85-13.48-40.35-23.32-53.27-25.76-11.71-2.22-20.06-2.52-31.67-2.25-1.29.03-19.68-.88-17.54,1.95ZM304.81,203.21c21.42-4.19,52.91-27.56,54.98-50.52,2.98-32.95-24.99-64.53-59.25-58.25-1.48.27-4.62,1.35-5.23,2.7.49,8.18,1.44,16.33,4.63,23.92,34.49-4.99,33.54,44.87,6.82,53.81l-1.95,28.34ZM288.32,108.21c-.74.17-6.77,10.42-8.54,12.47-22.47,25.96-83.03,42.52-116.43,44.57s-89.53-11.63-112.54-38.54c-1.78-2.09-2.25-6.06-5.48-6.5-6.81,1.6-5.91,39.86-5.55,46.54,3.19,60.32,33.7,114.22,94.83,130.17,90.69,23.67,173.23-40.68,167.21-135.21-.84-13.23-5.54-38.47-10.25-50.75-.46-1.2-1.83-3.09-3.23-2.76ZM306.81,163.2c20.17-4.23,19.02-36.74-3.99-30.98l3.99,30.98ZM256.79,285.21c-.93-.68-18.23,10.56-19.51,11.96-3.38,3.69,2.03,12.88,4.36,16.7,9.89,16.24,24.86,10.76,39.85,4.51,17.82-7.43,37.42-21.1,46.25-38.58-6.18-5.6-16.23-1.81-23.18.65-13.6,4.81-26.34,12.5-37.27,21.81-2.68,0-9.86-13.83-10.5-17.06ZM94.81,336.19c17.74,4.96,38.06,8.39,56.54,7.05,5.07-.37,28.38-4.91,28.27-11.34l-7.77-19.24c-3.76.14-16.57-2.84-17.92,1.22-.75,2.25.95,5.19.91,7.76-.26,16.43-14.8,9.04-25.49,8.51-9.43-.46-21.37-.27-30.31,2.78-1.85.63-4.97.68-4.23,3.24Z"/>
      <path class="cls-1" d="M148.65,40.03c-4.62,2.8-7.86-5.18-10.33-7.84-5.97-6.42-25.57-20.97-12.86-29.83,14.1-9.83,26.24,13.49,26.37,25.39.02,1.99-1.97,11.54-3.18,12.28ZM145.8,28.2c.49-8.74-6.64-26.09-17.75-20.75-2.29,3.41-1.07,5.85,1.36,8.65l16.38,12.1Z"/>
      <path class="cls-1" d="M12.12,72.89c-4.53-4.86-2.17-13.3,3.34-16.54,7.14-4.2,18.1-2.19,25.05,1.64,3.21,1.77,13.94,10.64,8.71,14.12-1.1.73-23.15,4.02-25.97,4.11-3.07.1-9.03-1.08-11.13-3.34ZM16.06,68.96c3.05,3.01,17.44.1,21.33-1.68,1.07-.49,2.8-.96,2.42-2.57-4.67-4.23-15.36-6.9-20.92-3.93-2.81,1.5-5.64,5.39-2.83,8.17Z"/>
      <path class="cls-1" d="M26.59,42.96c-1.87,1.75-14.21,1.59-17.28,1.24-15.11-1.71-11.03-21.15,6.53-16.53,4.23,1.11,14.8,11.52,10.75,15.29ZM19.8,38.2c-.29-6.6-17.98-8.56-13.51-.98,1.97,3.34,10.22,1.69,13.51.98Z"/>
      <path class="cls-1" d="M285.67,196.06l-10.86-.87c-1.77,29.07-25.64,60.34-54.37,67.14-33.08,7.83-62.18-10.77-72.69-42.09-4.31-2.99-18.36,16.7-16.95,21.95-1.73.35-2.03-.43-2.77-1.71-4.89-8.43,7.76-24.94,14.3-30.26,2.9-2.36,16.53-11.51,18.27-5.32,3.4,12.16-8.9,5.72-6.32,15.32,2.89,10.76,19.03,23.67,28.86,28.14,38.49,17.5,82.86-15.69,86.63-55.13-6.2,2.15-7.81-8.66-5.02-10.6,4.08-2.84,29.59,1.68,20.93,13.42Z"/>
      <path class="cls-1" d="M208.73,175.26c3.65,2.26,1.71,38.38-6.65,40.78-11.14,3.19-18.2-26.86-16.27-34.83,2.71-3.17,5.84,12.27,6.22,13.27,1.29,3.38,4.88,12,9.12,10.62,5.47-1.78,3.01-24.4,4.65-29.9l2.93.06Z"/>
      <path class="cls-1" d="M243.8,183.7c-2.33,22.09-13.35,18.26-17.53-.47-.29-1.29-2.57-16.47,2.55-12.55,1.92,1.47,3.83,15.96,8.97,17.52l1.17-19.34,1.35-1.65c1-.52,3.48.67,3.48,1.48,0,4.71.48,10.49,0,15Z"/>
      <path class="cls-1" d="M57.8,163.2c6.48,2.92,4.94,13.68,6.95,20.55,1.18,4.04,3.68,8.62,5.53,12.47,2.81,5.86,10.41,12.52,4.02,18.96-6-5.43-10-13.85-12.53-21.45-.84-2.52-3.97-13.21-3.97-15.03v-15.5Z"/>
      <path class="cls-1" d="M172.8,103.2c-21.36-2.16-44.69-12.57-61.01-26.48-8.59-7.33-15.21-16.93-23.46-24.54-2.51-2.32-18.43-13.92-18.51-15.47-.08-1.67,2.01-.9,2.76-.81,19.38,2.47,35.18,32.11,51.7,42.33,13.57,8.4,32.94,12.82,46.22,21.78,1.28.87,2.73,1.13,2.3,3.19Z"/>
      <path class="cls-1" d="M151.8,131.19c-26.91-4.62-45.51-45.37-75.5-24.98-4.19.6.64-6.67,2.01-8,11.45-11.06,28.46-1.11,39.41,5.57,7.04,4.3,15.88,10.52,22.4,15.6,4.35,3.39,9.4,6.53,11.68,11.81Z"/>
    </g>
  </g>
</svg>