<?xml version="1.0" encoding="UTF-8"?>
<svg id="Layer_2" data-name="Layer 2" xmlns="http://www.w3.org/2000/svg" viewBox="0 0 1980.81 1021.26">
  <defs>
    <style>
      .cls-1, .cls-2 {
        fill: #1c4aa6;
      }

      .cls-3 {
        fill: #d9cec8;
      }

      .cls-4 {
        letter-spacing: -.01em;
      }

      .cls-5 {
        letter-spacing: .1em;
      }

      .cls-6 {
        letter-spacing: -.04em;
      }

      .cls-7, .cls-8 {
        fill: #4f3b2f;
      }

      .cls-9 {
        fill: #fff;
        font-family: HelveticaNeueLTStd-MdCn, 'Helvetica Neue LT Std';
        font-size: 85px;
        font-weight: 500;
      }

      .cls-10 {
        fill: #5b5b5b;
        font-family: HelveticaNeueLTStd-Lt, 'Helvetica Neue LT Std';
        font-size: 21px;
      }

      .cls-2 {
        font-family: HelveticaNeueLTStd-Bd, 'Helvetica Neue LT Std';
        font-size: 24px;
      }

      .cls-11 {
        fill: #515151;
      }

      .cls-12 {
        letter-spacing: -.09em;
      }

      .cls-13 {
        fill: #eaeaea;
      }

      .cls-8 {
        font-family: HelveticaNeueLTStd-BdCn, 'Helvetica Neue LT Std';
        font-size: 100px;
      }
    </style>
  </defs>
  <g id="Layer_1-2" data-name="Layer 1">
    <rect class="cls-13" x=".08" width="1980.73" height="1021.26"/>
    <path class="cls-3" d="M0,575.42c4.01,9.57,10.39,22.49,20.46,36.26,3.81,5.21,19.64,26.27,48.69,45.58,6.84,4.55,28.91,18.63,69.41,30.04,26.31,7.41,40.68,8.14,105.67,14.5,59.76,5.85,89.84,8.85,99.45,12.43,29.99,11.17,51.14,30.74,92.2,69.41,31.43,29.6,36.71,43.61,80.81,85.99,22.84,21.94,40.89,29.11,63.19,35.22,15.05,4.13,26.81,7.99,55.94,5.18,33.53-3.23,64.56-6.22,104.63-18.65,43.75-13.56,43.05-21.25,69.41-23.83,10.25-1,49.58-4.85,83.91,17.61,22.56,14.76,19.65,25.63,56.98,59.05,13.55,12.13,23.69,21.21,39.24,30.04,17.92,10.18,51.97,30.44,79.68,17.08,6.32-3.05,15.67-5.98,44.77-69.91,19.91-43.74,23.7-55.1,38.33-67.34,16.12-13.49,33.19-17.82,48.69-21.76,20.08-5.1,42.81-6.99,79.77-2.07,40.34,5.36,48.58,12.31,93.24,22.79,60.75,14.26,91.12,21.39,125.35,11.4,6.01-1.75,49.1-14.98,77.7-54.91,19.91-27.79,11.63-38.97,37.29-102.56,15.38-38.1,23.43-57.49,41.44-74.59,16.51-15.68,35.87-22.88,74.59-37.29,30.42-11.32,58.85-21.9,98.42-27.97,60.78-9.32,71.93-6.98,93.53-24.53,18.78-15.26,30.11-29.86,39.07-59.38,5.72-18.85,11.99-48.87,13.47-55.94,2.05-9.83,3.61-18.05,4.66-23.83V4.45H0v570.97Z"/>
    <path class="cls-3" d="M1530.08,863.01c-.79.3-7.55,2.86-13.99,8.81-4.12,3.81-4.54,5.71-4.4,6.99.48,4.42,8.18,6.69,9.19,6.99,7.45,2.2,14.07-.13,22.92-3.37,7.23-2.65,12.38-4.53,18.13-9.32,1.75-1.46,8.3-7.14,12.69-16.83,1.27-2.79,2.4-8.08,4.66-18.65,2.41-11.24,2.38-13.2,1.3-13.99-1.56-1.13-5.03.33-14.5,7.77-24.35,19.13-23.45,26.79-36,31.6Z"/>
    <path class="cls-3" d="M1620.21,794.9c-11.86-2.08-19.75,8.68-20.2,9.32-1.23,1.74-5.56,7.86-3.63,14.5,1.76,6.07,7.69,8.96,12.17,11.14,3.32,1.62,6.54,3.18,10.88,2.85,8.83-.68,13.71-8.59,13.99-9.06,3.59-6.05,3.38-13.59,0-19.42-.47-.82-4.68-7.83-13.21-9.32Z"/>
    <path class="cls-13" d="M1613.21,805.26c-3.4,1.56-5.74,7.5-2.85,11.14,2,2.53,5.81,3.05,8.55,1.81,4.34-1.95,5.66-8.16,3.63-10.88-.96-1.28-2.61-1.73-3.88-2.07-1.04-.28-3.41-.93-5.44,0Z"/>
    <path class="cls-3" d="M1641.96,688.45c-4.51,7.68-7.46,14.27-9.32,18.91-3.28,8.14-2.61,8.71-6.99,19.94-.77,1.98-3.34,8.48-6.47,17.09-2.29,6.28-2.85,8.11-2.9,10.88-.13,7.25,3.4,12.52,4.46,13.99,1.77,2.44,4.41,6.09,9.32,7.51,4.35,1.25,10.99.9,13.47-2.85,2.39-3.61-1.31-7.01-1.55-16.83-.17-6.7,1.38-11.79,2.07-13.99.93-2.98,3.48-10.76,10.36-17.35.79-.76.7-.6,11.65-7.77,10.04-6.57,13.08-8.65,16.32-12.69,2.74-3.42,4.19-6.47,4.66-7.51,3.18-6.98,3.17-13.2,3.11-15.28-.13-3.96-.38-11.9-6.22-18.13-1.4-1.5-4.44-4.65-9.32-5.7-6.87-1.47-12.65,2.33-15.8,4.4-7.36,4.84-10.81,11.75-13.47,17.09-1.65,3.31-2.7,6.22-3.37,8.29Z"/>
    <path class="cls-3" d="M1670.62,736.16c-3.29-.53-7.04,1.82-8.81,3.89-.79.93-2.3,2.69-1.55,4.77,1.11,3.11,6.27,4.21,7.25,4.41,1.35.29,3.85.82,6.47,0,2.75-.86,3.81-2.62,4.14-3.18,1.72-2.86-.27-5.51-.52-5.83-1.24-1.58-3.19-2.49-4.66-3.18-1.11-.52-1.66-.78-2.33-.88Z"/>
    <path class="cls-3" d="M1694.71,625.86c-3.29.81-4.24-.89-6.99,0-2.64.85-4.99,3.43-5.44,6.47-.09.61-.52,3.54,1.55,5.7.16.16,2.12,2.15,4.63,1.81.41-.06,1.39-.25,4.69-3.37,3-2.83,2.83-3.27,4.14-3.95,2.88-1.47,4.81.06,5.96-1.23,1.65-1.86-.21-7.44-2.85-8.03-1.75-.39-2.33,1.76-5.7,2.59Z"/>
    <g id="uuid-7c016f52-dab4-455d-995d-18047a58bcf0" data-name="Layer 1-2">
      <g>
        <path class="cls-1" d="M311.84,50.13c5.54-.31,15.96,1.21,16.34,8.21.18,3.27-4.74,12.37-6.84,15.11-2.86,3.74-9.52,11.41-13.84,5.66l-.6-23.26c-.31-1.71-3.65-2-1.69-3.92,1.6-1.57,4.53-1.69,6.62-1.81h0ZM312.87,53.53c-.73.06-2.48-.07-2.49.93l1.69,2.5c.46,2.92-1.55,18.2-.5,19.85.18.29.34.51.71.53,4.76-3.84,8.64-8.81,10.37-14.72.89-3.02,1.85-6.13-1.6-8.08-1.29-.72-6.65-1.13-8.18-1h0Z"/>
        <path class="cls-1" d="M278.96,53.82c-.12.33-5.65,2.32-6.46,2.56-1.68.48-8.61,1.45-9.34,1.98-.55.39-.61.81-.79,1.39-.22.68-.9,4.62-.92,5.32-.02.59.11,1.3.71,1.58,2.21.18,7.42-4.05,8.93-2.21.3.39.46.99.46,1.46-.03,2.51-8.29,4.31-10.34,5.01-.99,10.21,7.4,4.69,12.18,4.96,3.88.22,2.3,3.13-.96,4.06-5.29,1.51-13.5.5-16.08-5.1-.53-1.15-.43-2.72-1.34-3.76-.75-.86-3-.95-3.28-2.58,1.33-1.39,3.47-.31,4.19-2.53.18-.56,1.17-6.94,1.12-7.32-.14-.91-1.25-1.64-1.59-2.51l.12-.54c2.31-.48,1.74-2.52,3.99-2.87s2.7.77,4.37.9c3.04.24,12.83-2.45,14.56-.98.35.3.51.73.49,1.19h0Z"/>
        <path class="cls-1" d="M196.21,72.63c.32,1.53,2.78,6.48.23,7.49-3.48,1.38-3.22-7.12-4.23-8.67-.82-1.26-2.08-.8-3.25-.47-.8.22-7.69,2.9-8.02,3.18-1.62,1.36-1.93,4.55-3.99,5.8-1.97,0-3.68-1.07-3.12-3.22,3.66-6.44,4.98-16.45,10.42-21.59,10.79-10.22,10.8,11.96,11.95,17.49h0ZM190.95,67.41c.44-.69-.59-8.85-1.14-9.64-.46-.67-1.37-.28-1.89.15-1.03.86-5.55,9.33-5.44,10.45.03.26.54.88.8.93l7.67-1.9Z"/>
        <path class="cls-1" d="M342.47,70.04c-2.49,1.82-8.72,2.6-10.51,4.83-1.19,1.48-1.1,5.35-4.06,5.13-2.13-.16-2.34-1.66-1.99-3.41.57-2.8,6.13-16.73,7.67-19.1,1.77-2.72,6.05-6.97,9.46-4.25,3.09,2.47,3.55,12.94,4.42,16.96.46,2.11,3.66,8.22.84,9.38-3.71,1.53-2.75-8.97-5.83-9.55h0ZM342.78,66.4c-.43-1.39-.66-9.78-2.77-9.13-1.91.59-5.53,9.36-5.88,11.66l8.08-1.79.57-.74h0Z"/>
        <path class="cls-1" d="M227.12,53.3c.04.38.12.77-.05,1.14-.74,1.53-13.67,2.15-14.35,3.37l-.52,19.33c.15,1.93-1.74,3.93-3.58,2.77-1.12-.7-.03-6.31,0-7.78.09-4.46-.33-8.96,0-13.43-.36-1.1-5.13,1.43-6.01,1.67-2.24.62-3.51,1.04-5.02-1.21.04-1.77,1.18-2.12,2.5-2.72,8.08-3.69,18.34-2.99,27.04-3.15h0Z"/>
        <path class="cls-1" d="M224.23,60.8c-1.23-.88-.85-1.97.24-2.77,4.32-3.17,15.45-4.66,20.82-4.96,1.07-.06,7.54-.24,7.71.42-.12.83-.47,1.05-1.17,1.35-1.99.85-12.41,2.12-13.01,2.97l-.13,21.18c-.81,1.95-3.75,2.27-3.89-.3-.15-2.6.36-6.11.27-8.96-.12-3.48-.39-7.03-.72-10.5l-.55-.5c-2.95.81-6.62,4.17-9.57,2.05h0Z"/>
        <path class="cls-1" d="M162.7,79.49c-3.36,1.69-8.88,1.93-11.18-1.62-1.34-2.06-1.02-15.89-.88-19.11.05-1.22-.03-4.58.24-5.45.59-1.85,3.66-2.13,4.89-.7s-.27,12.44-.31,15.1c-.03,1.99-.41,9.1,1.61,9.81,1.94.85,8.68-5.31,9.47-2.54.53,1.86-2.48,3.81-3.86,4.5h0Z"/>
        <path class="cls-1" d="M169.83,51.68c1.66-.22,3.06,2.06,3.19,3.53.14,1.59-.61,10.88-2.92,10.41-1.41-1.73-.77-5.11-.89-7.46-.06-1.18-1.61-6.19.62-6.48Z"/>
      </g>
      <g>
        <path class="cls-1" d="M82.81,32.83c.77.53,2.18,1.7,2.77,2.42s2.05,3.93,2.68,4c1.35-.41,2.75-.66,4.16-.75,5.36-.33,13.06.73,17.63,3.67.93.6,1.7,1.82,2.34,2.71,2.61-1.04,5.02-1.15,7.61.08,5.36,2.55,8.31,10.59,6.18,16.13-1.77,4.61-7.23,8.09-11.79,9.49-1.42,4.56-3.84,8.82-7.42,12.02.8,2.56.98,1.47,2.23.66,2.32-1.48,7.23-4.05,9.9-3.53,2.82.54,1.56,4.34.5,6-2.12,3.3-9.85,8.09-13.81,7.78-3.74-.3-3.41-3.23-5.05-5.67-.87-1.3-1.77-.17-3.08.19-.66.18-1.66.52-2.16.64-.65.15-3.48.08-3.93.57-.57.63.21,1.23.28,1.59.52,2.75.07,4.61-2.68,5.64-2.82,1.05-8.81.74-11.8.14-1.21-.24-4.21-1.09-4.71-2.28-2.04-4.8,7.07-4.33,9.68-4.24,1.21.04,3.75,1.03,2.24-1.31l-4.19-1.09c-14.1-4.98-19.35-20.32-17.41-34.2.26-1.87.88-2.57,1.09-3.73.1-.57-.07-1.26.02-1.85.22-1.39,1.27-2.51,1.7-3.81-.4-.36-2.27,1.1-2.68,1.28-1.28.56-3.82,1.3-4.27-.62-.79-3.37,3.65-7.19,6.64-7.81.45-.43-2.28-.77-2.49-.85-2.23-.79-2.78-3.53-.92-4.97,2.59-1.98,7.78-2.34,10.93-2.08,3.14.26,7.13,1.93,9.83,3.77ZM80.62,34.08c-4.86-2.65-9.95-3.29-15.34-1.91l-2.14,1.15c-.06.8,5.45.98,6.13,1.02.85.04,5-.28,5.21.42,0,.54.07,1.48-.19,1.95-.03.04-.73.67-.78.69-1.01.33-2.92.39-4.06.69-3.2.82-7.45,2.13-9.11,5.19.11,1.36,4.44-1.55,4.7-1.67,2.32-1.09,6.48-2.97,9.05-2.61,1.51.21,1.36,2.21.75,3.23-.16.27-.49.26-.64.62-.27.63-.18,1.77-.49,2.46-.86,1.9-4.31.53-4.5,1.88-.05.35.81,1.44-.41,2.23-1.43-1.27-1.41-4.99.81-5.4.92-.17,1.92.11,2.84-.11.23-.59,1.18-2.38.09-2.42-.79-.03-6.02,1.57-6.13,2.28,1.83,1.94-1.2,3.26-1.04,5.03.34,3.62,8.54,7.17,11.64,7.95,8.54,2.15,17.96,1.18,25.9-2.44,1.29-.59,2.57-1.42,3.82-2.09-.26-1.19-.76-2.34-1.72-3.12-3.92-3.18-10.51-4.08-15.12-6.01-3.4-1.42-2.88-3.02-4.69-5.41-.94-1.24-3.21-2.84-4.57-3.58h0ZM109.22,44.33c-3.91-2.53-11.74-3.77-16.33-3.34-.27.03-.5-.04-.69.24,4.73,2.14,12.44,2.88,15.03,7.96.27.53.25,1.39.75,1.91.83.18,3.43-3.42,3.45-4.31s-1.52-2.03-2.2-2.47h0ZM121.77,48.87c-1.3-1.17-1.79-1.68-3.59-2.08-1.69-.37-3.04-.19-4.7.28.19,1.51.15,3.09.85,4.49.9.21,1.7-.04,2.65.3.67.25,2.04,1.65,2.2,2.3.08.32.32,2.22.35,2.62.09,1.1-1.19,3.7-2.04,4.48-.27.25-1.66,1-1.7,1.14.18,1.48-.52,3.4-.47,4.79,0,.25,0,.38.24.53,1.9-.87,3.72-1.66,5.39-2.95,5.87-4.5,6.42-10.85.8-15.91h0ZM119.23,82.18h-2.72s-.24.33-.4.38c-2.79.82-6.05,2.55-8.14,4.56-.5.02-2.2-2.74-2.26-3.39-.22-.15-2.51,1.74-2.01-1,.18-.99,2.81-2.3,3.66-3.1,7.76-7.22,8.42-19.65,5.3-29.19-.05-.15-.4-.71-.51-.74-1.13,1.16-1.97,2.52-3.26,3.57-10.11,8.24-31.9,9.98-42.03.86-.36-.33-1.9-2.44-2.17-2.26-.05.53-.52.81-.61,1.33-1.24,6.95.48,16.5,4.22,22.5,5.89,9.45,18.87,13.09,29.36,9.84.82-.26,4.45-2.01,5.01-1.83.26.49.34,1.23.21,1.76-.18.77-.81.67-.87.76-.42.6,1.65,4.12,2.38,4.49.35.18,1.62.46,2.02.46,2.66.01,9.55-4.01,11.32-6.09.36-.42,1.96-2.46,1.5-2.93h0ZM117.3,54.59c-.42-.34-2.11-1.17-2.4-.43-.05.14.26,2.55.31,2.91.14.92.28,1.86.6,2.74,1.89-.66,3.34-3.73,1.49-5.22ZM90.58,93c.15-.28.27-.4.19-.76l-1.3-2.91c-.58-.05-3.37-.74-3.45.07.86,3.13.06,3.38-2.77,3.35-1.95-.02-3.93-.33-5.89-.16-.73.06-1.69.07-2.1.7.34.37.84.43,1.3.56,3.41,1.01,10.26,1.37,13.43-.29.05-.03.58-.53.6-.56h0Z"/>
        <path class="cls-1" d="M58.27,33.75c1.37,1.33-.13,5.21-2.07,5.38-3.19.29-4.02-2.92-2.39-5.2.99-1.38,3.3-1.3,4.46-.18h0ZM57.23,35.57c-.55-.07-2.71-.26-2.61.7.09.87,2.86.33,2.61-.7Z"/>
        <path class="cls-1" d="M110.22,63.38c-.45,2.36-1.24,4.84-2.52,6.89-3.85,6.17-12.64,8.83-18.47,3.76-1.73-1.51-3.17-3.69-3.97-5.84-1.88.21-2.62,2.44-3.16,3.98l-.6.03c-.69-.64-.37-1.74-.07-2.57.78-2.14,3.15-4.67,5.48-5.01.52,1.15-.41,2.24-.22,3.09.29,1.29,2.91,4.1,4.03,4.83,6.33,4.15,14.8.24,17.36-6.42.46-1.19,1.47-3.33-.34-3.48l-.15-1.37c.4-1.3,2.15-.8,3.14-.5,1.38.42,2.29,1.16,1.3,2.61h-1.79s0,0,0,0Z"/>
        <path class="cls-1" d="M93.12,61.52c1.85.4,1.27,3.19,3.01,3.72,1.23-1.24.45-3.29.78-4.81.07-.33.55-1.38.94-.91.55.66.53,8.26-1.83,8.2-1.44-.07-3.65-4.77-2.9-6.18h0Z"/>
        <path class="cls-1" d="M67.91,58.6l.7,5.44c.37.83,2.36,3.89,2.4,4.54,0,.18-.4.7-.25,1.05l-.3.19c-.46.08-1.03-.78-1.24-1.14-1.43-2.44-2.44-5.62-2.33-8.47.03-.64.14-2.2,1.03-1.62Z"/>
        <path class="cls-1" d="M102.45,59.42c.05-.5.25-2.87,1.1-1.87.59.7.08,6.4-.7,7.09-1.17,1.03-2.77-1.89-2.89-2.87-.06-.49-.18-2.65.71-2.42.25.07.63,1.94.87,2.37.15.28.93.97.93.2s-.07-1.73,0-2.49h0Z"/>
        <path class="cls-1" d="M72.64,73.76c-.51-.3-.95-2.33-.11-2.93,1.88-1.35,2.06,4.06.11,2.93Z"/>
        <path class="cls-1" d="M91.2,48.98c.7.75,1.03,1.9.66,2.88-.62.46-1.5-1.02-1.91-1.31-.45-.31-2.01-1.3-2.44-1.53-1.34-.71-5.14-.8-4.46-3.09.05-.16.53-.68.66-.69.15-.01,2.54.8,2.9.94,1.32.52,3.67,1.81,4.59,2.79Z"/>
        <path class="cls-1" d="M81.67,50.22c.08-.1.48-.34.62-.32,1.09.54,4.12.59,4.55,1.98.25.8,0,1.59-.92,1.56-.19,0-3.49-.9-3.68-1-.79-.39-1.08-1.52-.56-2.22h0Z"/>
      </g>
    </g>
    <text class="cls-2" transform="translate(1107.46 81.29)"><tspan x="0" y="0">Home</tspan></text>
    <text class="cls-2" transform="translate(1273.69 81.66)"><tspan x="0" y="0">Menu</tspan></text>
    <text class="cls-2" transform="translate(1439.92 81.29)"><tspan x="0" y="0">Contact</tspan></text>
    <circle class="cls-11" cx="381.78" cy="66.77" r="1.89"/>
    <text class="cls-10" transform="translate(410.54 74.16)"><tspan class="cls-5" x="0" y="0">BROOK</tspan><tspan class="cls-4" x="83.24" y="0">L</tspan><tspan class="cls-5" x="94.29" y="0">YN</tspan></text>
    <g>
      <path class="cls-7" d="M613.1,172.87c-21.78-3.28-50.49-7.45-88.29-6-21.07.81-46.63,1.95-78.86,11.14-12.81,3.65-34.78,10.07-60,24.86-20.26,11.88-34.08,24.78-61.72,50.57-8.05,7.51-20.8,20.44-46.29,46.29-27.36,27.74-31.05,32.04-34.29,36-19.8,24.2-31.08,45.84-35.14,54-3.6,7.23-15.33,31.55-23.14,66-6.5,28.66-7.24,50.85-7.71,67.72-.74,26.49-1.57,67.47,12.86,117.44,6.59,22.82,14.31,49.57,35.15,78.86,16.27,22.87,32.95,36.63,54,54,18.35,15.14,38.49,31.75,69.43,46.29,29.96,14.07,55.06,19.15,75.43,23.14,36.17,7.08,64.2,7.56,82.29,7.71,33.95.29,63.38.54,100.44-10.41,16.86-4.98,40.93-12.33,65.86-31.6,7.11-5.49,19.84-16.03,32.57-32.57,2.35-3.05,5.39-7.21,23.14-36.86,17.3-28.9,17.67-30.38,23.14-38.57,11.77-17.62,17.62-22.02,32.57-40.29,14.18-17.32,31.38-38.33,46.29-67.72,5.35-10.55,15.88-32.97,23.14-63.43,6.66-27.92,7.53-49.84,7.71-55.72,1.2-39.3-7.04-68.89-12.86-89.15-6.12-21.3-17.65-60.14-48-102.01-11.63-16.04-33.06-45.01-71.15-69.43-6.01-3.85-29.43-18.49-63.43-29.14-19.31-6.05-33.76-8.23-53.15-11.14Z"/>
      <path class="cls-7" d="M689.96,825.34c-8,6.42-7.28,4.31-17.43,12.57-11.04,8.99-11.07,10.82-10.86,11.71.63,2.72,5.13,3.82,7.43,4.38,11.1,2.7,21.17-3.41,24.29-5.52,2.82-1.9,8.96-6.18,11.71-14,.76-2.17,3.1-8.79,0-11.71-3.19-3.01-10.19-.27-10.86,0-2.2.89-3.64,2.05-4.29,2.57Z"/>
      <path class="cls-7" d="M759.68,719.91c-7.54,10.43-9.74,10.9-14.57,19.14-4.44,7.57-6.48,13.8-9.71,23.72-3.57,10.92-5.35,16.38-5.71,23.72-.37,7.61-.92,18.67,6.57,26,4.39,4.3,9.59,5.41,11.14,5.71,7.65,1.52,15.47-1.08,20.57-5.71,4.45-4.04,6.01-9.36,9.14-20,2.53-8.6,1.3-8.3,3.71-15.43,1.73-5.12,2.44-5.48,8.57-19.14,3.8-8.45,3.77-8.85,5.14-10.86,4.45-6.48,10.02-9.97,12.86-11.71,2.27-1.39,3.8-2.07,14.57-6.29,15-5.86,13.92-5.27,15.43-6,8.14-3.91,16.37-7.88,20-16,1.15-2.58,1.44-7.25,2-16.57.46-7.56.69-11.34,0-14.86-.58-3-2.23-11.44-9.43-17.43-3.69-3.07-7.28-4.2-10.29-5.14-2.12-.67-12.62-3.97-23.14-.29-3.92,1.37-6.61,3.28-18,15.43-12.86,13.71-19.28,20.57-24.57,28.29-7.7,11.24-6.01,11.98-14.29,23.43Z"/>
      <path class="cls-7" d="M820.25,747.62c-5.41.15-15.25.43-19.14,8-.31.6-2.58,5.2-.86,10.29,2.45,7.23,11.17,10.09,17.43,9.71,2.07-.12,6.65-.4,9.43-3.71,2.18-2.61,1.55-7.45.29-17.14-.28-2.15-.67-4.56-2.57-6-1.45-1.1-3.17-1.18-4.57-1.14Z"/>
      <path class="cls-7" d="M855.11,604.76c-6.82-1.72-14.38.47-19.43,5.14-1.73,1.6-5.55,5.13-5.71,10.29-.11,3.33,1.36,5.83,3.14,8.86,1.72,2.93,3.69,6.28,7.71,8.29,3.53,1.76,6.85,1.6,10.29,1.43,3.08-.15,5.54-.28,8.29-1.71,5.44-2.85,7.29-8.42,7.71-9.71,1.81-5.47.42-10.1,0-11.43-.43-1.36-1.31-4.05-3.71-6.57-3.05-3.2-6.65-4.16-8.29-4.57Z"/>
      <path class="cls-7" d="M851.97,583.61c-2.99-.57-5.51,1.72-6.57,3.71-.83,1.55-1.66,4.59,0,6.29,2.08,2.13,6.18.19,6.57,0,.29-.14,4.87-2.46,4.29-6-.35-2.1-2.36-3.63-4.29-4Z"/>
      <path class="cls-7" d="M306.65,196.87c-1.68.91-7.96,4.4-15.64,10.71-5.74,4.72-11.18,9.19-16.5,16.72-2.53,3.58-4.9,8.81-9.64,19.29-3.65,8.06-4.92,11.81-4.29,16.5.24,1.78.79,5.46,3.64,8.57,5.12,5.58,13.3,4.59,13.93,4.5,4.05-.56,7.08-2.58,16.93-12.86,7.4-7.73,8.73-9.77,15-16.5,7.84-8.42,11.88-12.76,18.22-18.22,2.61-2.25,8.46-7.14,15-14.57,2.74-3.12,4.99-5.98,5.36-10.07.08-.84.47-6.12-2.79-9.64-6.32-6.84-21.5-1.77-27.43.21-5.03,1.68-8.71,3.68-11.79,5.36Z"/>
      <path class="cls-7" d="M208.5,298.24c0-.08,1.47-.22,1.5-.08.07.33-8.1.29-11.14,4.79-1.82,2.7-1.61,6.75.21,9.64,2.53,4.02,7.93,5.43,12.21,3.64,4.93-2.06,7.27-7.89,5.79-12.22-.83-2.43-3.12-5.11-5.84-5.63-1.19-.22-2.73-.08-2.73-.16Z"/>
      <path class="cls-7" d="M172.09,346.79c-9.34,7.29-9.7,6.99-10.82,8.46-2.75,3.62-3.6,9.38-1.61,13.72,1.31,2.84,3.44,4.22,7.71,6.96,4.84,3.12,7.91,5.09,12.32,5.36.65.04,10.78.48,15.43-7.18,3.74-6.16,1.17-13,.54-14.68-2-5.32-5.82-8.1-7.93-9.64-1.4-1.02-9.25-6.75-14.47-3.86-.29.16-.42.26-1.18.86Z"/>
      <path class="cls-7" d="M171.12,391.89c-2.35,1.3-2.63,4.04-2.68,4.51-.02.19-.37,4.19,2.36,5.57,2.48,1.25,5.22-.8,5.57-1.07,1.86-1.39,3.54-4.22,2.57-6.54-.64-1.52-2.15-2.18-2.79-2.46-.51-.22-2.82-1.24-5.04,0Z"/>
    </g>
    <text class="cls-9" transform="translate(1021.36 339.79)"><tspan class="cls-6" x="0" y="0">Y</tspan><tspan x="37.48" y="0">OUR DAI</tspan><tspan class="cls-12" x="306.67" y="0">L</tspan><tspan x="336.59" y="0">Y</tspan></text>
    <text class="cls-8" transform="translate(1021.36 468.24)"><tspan x="0" y="0">RITUAL DONE RIGHT</tspan></text>
  </g>
</svg>